<?xml version="1.0" encoding="utf-8"?>
<svg xmlns="http://www.w3.org/2000/svg" xmlns:xlink="http://www.w3.org/1999/xlink" width="600" height="400" viewBox="0 0 2400 1600">
<defs>
  <clipPath id="clip230">
    <rect x="0" y="0" width="2400" height="1600"/>
  </clipPath>
</defs>
<path clip-path="url(#clip230)" d="M0 1600 L2400 1600 L2400 0 L0 0  Z" fill="#ffffff" fill-rule="evenodd" fill-opacity="1"/>
<defs>
  <clipPath id="clip231">
    <rect x="480" y="0" width="1681" height="1600"/>
  </clipPath>
</defs>
<path clip-path="url(#clip230)" d="M172.015 1486.45 L2352.76 1486.45 L2352.76 47.2441 L172.015 47.2441  Z" fill="#ffffff" fill-rule="evenodd" fill-opacity="1"/>
<defs>
  <clipPath id="clip232">
    <rect x="172" y="47" width="2182" height="1440"/>
  </clipPath>
</defs>
<polyline clip-path="url(#clip232)" style="stroke:#000000; stroke-linecap:round; stroke-linejoin:round; stroke-width:2; stroke-opacity:0.1; fill:none" points="429.609,1486.45 429.609,47.2441 "/>
<polyline clip-path="url(#clip232)" style="stroke:#000000; stroke-linecap:round; stroke-linejoin:round; stroke-width:2; stroke-opacity:0.1; fill:none" points="773.731,1486.45 773.731,47.2441 "/>
<polyline clip-path="url(#clip232)" style="stroke:#000000; stroke-linecap:round; stroke-linejoin:round; stroke-width:2; stroke-opacity:0.1; fill:none" points="1117.85,1486.45 1117.85,47.2441 "/>
<polyline clip-path="url(#clip232)" style="stroke:#000000; stroke-linecap:round; stroke-linejoin:round; stroke-width:2; stroke-opacity:0.1; fill:none" points="1461.98,1486.45 1461.98,47.2441 "/>
<polyline clip-path="url(#clip232)" style="stroke:#000000; stroke-linecap:round; stroke-linejoin:round; stroke-width:2; stroke-opacity:0.1; fill:none" points="1806.1,1486.45 1806.1,47.2441 "/>
<polyline clip-path="url(#clip232)" style="stroke:#000000; stroke-linecap:round; stroke-linejoin:round; stroke-width:2; stroke-opacity:0.1; fill:none" points="2150.22,1486.45 2150.22,47.2441 "/>
<polyline clip-path="url(#clip232)" style="stroke:#000000; stroke-linecap:round; stroke-linejoin:round; stroke-width:2; stroke-opacity:0.1; fill:none" points="172.015,1486.45 2352.76,1486.45 "/>
<polyline clip-path="url(#clip232)" style="stroke:#000000; stroke-linecap:round; stroke-linejoin:round; stroke-width:2; stroke-opacity:0.1; fill:none" points="172.015,1198.61 2352.76,1198.61 "/>
<polyline clip-path="url(#clip232)" style="stroke:#000000; stroke-linecap:round; stroke-linejoin:round; stroke-width:2; stroke-opacity:0.1; fill:none" points="172.015,910.766 2352.76,910.766 "/>
<polyline clip-path="url(#clip232)" style="stroke:#000000; stroke-linecap:round; stroke-linejoin:round; stroke-width:2; stroke-opacity:0.1; fill:none" points="172.015,622.926 2352.76,622.926 "/>
<polyline clip-path="url(#clip232)" style="stroke:#000000; stroke-linecap:round; stroke-linejoin:round; stroke-width:2; stroke-opacity:0.1; fill:none" points="172.015,335.085 2352.76,335.085 "/>
<polyline clip-path="url(#clip232)" style="stroke:#000000; stroke-linecap:round; stroke-linejoin:round; stroke-width:2; stroke-opacity:0.1; fill:none" points="172.015,47.2441 2352.76,47.2441 "/>
<polyline clip-path="url(#clip230)" style="stroke:#000000; stroke-linecap:round; stroke-linejoin:round; stroke-width:4; stroke-opacity:1; fill:none" points="172.015,1486.45 2352.76,1486.45 "/>
<polyline clip-path="url(#clip230)" style="stroke:#000000; stroke-linecap:round; stroke-linejoin:round; stroke-width:4; stroke-opacity:1; fill:none" points="429.609,1486.45 429.609,1467.55 "/>
<polyline clip-path="url(#clip230)" style="stroke:#000000; stroke-linecap:round; stroke-linejoin:round; stroke-width:4; stroke-opacity:1; fill:none" points="773.731,1486.45 773.731,1467.55 "/>
<polyline clip-path="url(#clip230)" style="stroke:#000000; stroke-linecap:round; stroke-linejoin:round; stroke-width:4; stroke-opacity:1; fill:none" points="1117.85,1486.45 1117.85,1467.55 "/>
<polyline clip-path="url(#clip230)" style="stroke:#000000; stroke-linecap:round; stroke-linejoin:round; stroke-width:4; stroke-opacity:1; fill:none" points="1461.98,1486.45 1461.98,1467.55 "/>
<polyline clip-path="url(#clip230)" style="stroke:#000000; stroke-linecap:round; stroke-linejoin:round; stroke-width:4; stroke-opacity:1; fill:none" points="1806.1,1486.45 1806.1,1467.55 "/>
<polyline clip-path="url(#clip230)" style="stroke:#000000; stroke-linecap:round; stroke-linejoin:round; stroke-width:4; stroke-opacity:1; fill:none" points="2150.22,1486.45 2150.22,1467.55 "/>
<path clip-path="url(#clip230)" d="M419.886 1514.29 L438.243 1514.29 L438.243 1518.22 L424.169 1518.22 L424.169 1526.7 Q425.187 1526.35 426.206 1526.19 Q427.224 1526 428.243 1526 Q434.03 1526 437.409 1529.17 Q440.789 1532.34 440.789 1537.76 Q440.789 1543.34 437.317 1546.44 Q433.845 1549.52 427.525 1549.52 Q425.349 1549.52 423.081 1549.15 Q420.835 1548.78 418.428 1548.04 L418.428 1543.34 Q420.511 1544.47 422.734 1545.03 Q424.956 1545.58 427.433 1545.58 Q431.437 1545.58 433.775 1543.48 Q436.113 1541.37 436.113 1537.76 Q436.113 1534.15 433.775 1532.04 Q431.437 1529.94 427.433 1529.94 Q425.558 1529.94 423.683 1530.35 Q421.831 1530.77 419.886 1531.65 L419.886 1514.29 Z" fill="#000000" fill-rule="nonzero" fill-opacity="1" /><path clip-path="url(#clip230)" d="M748.419 1544.91 L756.058 1544.91 L756.058 1518.55 L747.748 1520.21 L747.748 1515.95 L756.011 1514.29 L760.687 1514.29 L760.687 1544.91 L768.326 1544.91 L768.326 1548.85 L748.419 1548.85 L748.419 1544.91 Z" fill="#000000" fill-rule="nonzero" fill-opacity="1" /><path clip-path="url(#clip230)" d="M787.77 1517.37 Q784.159 1517.37 782.331 1520.93 Q780.525 1524.47 780.525 1531.6 Q780.525 1538.71 782.331 1542.27 Q784.159 1545.82 787.77 1545.82 Q791.405 1545.82 793.21 1542.27 Q795.039 1538.71 795.039 1531.6 Q795.039 1524.47 793.21 1520.93 Q791.405 1517.37 787.77 1517.37 M787.77 1513.66 Q793.581 1513.66 796.636 1518.27 Q799.715 1522.85 799.715 1531.6 Q799.715 1540.33 796.636 1544.94 Q793.581 1549.52 787.77 1549.52 Q781.96 1549.52 778.882 1544.94 Q775.826 1540.33 775.826 1531.6 Q775.826 1522.85 778.882 1518.27 Q781.96 1513.66 787.77 1513.66 Z" fill="#000000" fill-rule="nonzero" fill-opacity="1" /><path clip-path="url(#clip230)" d="M1093.04 1544.91 L1100.68 1544.91 L1100.68 1518.55 L1092.37 1520.21 L1092.37 1515.95 L1100.63 1514.29 L1105.31 1514.29 L1105.31 1544.91 L1112.95 1544.91 L1112.95 1548.85 L1093.04 1548.85 L1093.04 1544.91 Z" fill="#000000" fill-rule="nonzero" fill-opacity="1" /><path clip-path="url(#clip230)" d="M1122.44 1514.29 L1140.79 1514.29 L1140.79 1518.22 L1126.72 1518.22 L1126.72 1526.7 Q1127.74 1526.35 1128.76 1526.19 Q1129.78 1526 1130.79 1526 Q1136.58 1526 1139.96 1529.17 Q1143.34 1532.34 1143.34 1537.76 Q1143.34 1543.34 1139.87 1546.44 Q1136.4 1549.52 1130.08 1549.52 Q1127.9 1549.52 1125.63 1549.15 Q1123.39 1548.78 1120.98 1548.04 L1120.98 1543.34 Q1123.06 1544.47 1125.28 1545.03 Q1127.51 1545.58 1129.98 1545.58 Q1133.99 1545.58 1136.33 1543.48 Q1138.66 1541.37 1138.66 1537.76 Q1138.66 1534.15 1136.33 1532.04 Q1133.99 1529.94 1129.98 1529.94 Q1128.11 1529.94 1126.23 1530.35 Q1124.38 1530.77 1122.44 1531.65 L1122.44 1514.29 Z" fill="#000000" fill-rule="nonzero" fill-opacity="1" /><path clip-path="url(#clip230)" d="M1440.75 1544.91 L1457.07 1544.91 L1457.07 1548.85 L1435.12 1548.85 L1435.12 1544.91 Q1437.79 1542.16 1442.37 1537.53 Q1446.98 1532.88 1448.16 1531.53 Q1450.4 1529.01 1451.28 1527.27 Q1452.18 1525.51 1452.18 1523.82 Q1452.18 1521.07 1450.24 1519.33 Q1448.32 1517.6 1445.22 1517.6 Q1443.02 1517.6 1440.56 1518.36 Q1438.13 1519.13 1435.36 1520.68 L1435.36 1515.95 Q1438.18 1514.82 1440.63 1514.24 Q1443.09 1513.66 1445.12 1513.66 Q1450.5 1513.66 1453.69 1516.35 Q1456.88 1519.03 1456.88 1523.52 Q1456.88 1525.65 1456.07 1527.57 Q1455.29 1529.47 1453.18 1532.07 Q1452.6 1532.74 1449.5 1535.95 Q1446.4 1539.15 1440.75 1544.91 Z" fill="#000000" fill-rule="nonzero" fill-opacity="1" /><path clip-path="url(#clip230)" d="M1476.88 1517.37 Q1473.27 1517.37 1471.44 1520.93 Q1469.64 1524.47 1469.64 1531.6 Q1469.64 1538.71 1471.44 1542.27 Q1473.27 1545.82 1476.88 1545.82 Q1480.52 1545.82 1482.32 1542.27 Q1484.15 1538.71 1484.15 1531.6 Q1484.15 1524.47 1482.32 1520.93 Q1480.52 1517.37 1476.88 1517.37 M1476.88 1513.66 Q1482.69 1513.66 1485.75 1518.27 Q1488.83 1522.85 1488.83 1531.6 Q1488.83 1540.33 1485.75 1544.94 Q1482.69 1549.52 1476.88 1549.52 Q1471.07 1549.52 1467.99 1544.94 Q1464.94 1540.33 1464.94 1531.6 Q1464.94 1522.85 1467.99 1518.27 Q1471.07 1513.66 1476.88 1513.66 Z" fill="#000000" fill-rule="nonzero" fill-opacity="1" /><path clip-path="url(#clip230)" d="M1785.37 1544.91 L1801.69 1544.91 L1801.69 1548.85 L1779.75 1548.85 L1779.75 1544.91 Q1782.41 1542.16 1786.99 1537.53 Q1791.6 1532.88 1792.78 1531.53 Q1795.02 1529.01 1795.9 1527.27 Q1796.81 1525.51 1796.81 1523.82 Q1796.81 1521.07 1794.86 1519.33 Q1792.94 1517.6 1789.84 1517.6 Q1787.64 1517.6 1785.18 1518.36 Q1782.75 1519.13 1779.98 1520.68 L1779.98 1515.95 Q1782.8 1514.82 1785.25 1514.24 Q1787.71 1513.66 1789.75 1513.66 Q1795.12 1513.66 1798.31 1516.35 Q1801.5 1519.03 1801.5 1523.52 Q1801.5 1525.65 1800.69 1527.57 Q1799.91 1529.47 1797.8 1532.07 Q1797.22 1532.74 1794.12 1535.95 Q1791.02 1539.15 1785.37 1544.91 Z" fill="#000000" fill-rule="nonzero" fill-opacity="1" /><path clip-path="url(#clip230)" d="M1811.55 1514.29 L1829.91 1514.29 L1829.91 1518.22 L1815.83 1518.22 L1815.83 1526.7 Q1816.85 1526.35 1817.87 1526.19 Q1818.89 1526 1819.91 1526 Q1825.69 1526 1829.07 1529.17 Q1832.45 1532.34 1832.45 1537.76 Q1832.45 1543.34 1828.98 1546.44 Q1825.51 1549.52 1819.19 1549.52 Q1817.01 1549.52 1814.74 1549.15 Q1812.5 1548.78 1810.09 1548.04 L1810.09 1543.34 Q1812.18 1544.47 1814.4 1545.03 Q1816.62 1545.58 1819.1 1545.58 Q1823.1 1545.58 1825.44 1543.48 Q1827.78 1541.37 1827.78 1537.76 Q1827.78 1534.15 1825.44 1532.04 Q1823.1 1529.94 1819.1 1529.94 Q1817.22 1529.94 1815.35 1530.35 Q1813.49 1530.77 1811.55 1531.65 L1811.55 1514.29 Z" fill="#000000" fill-rule="nonzero" fill-opacity="1" /><path clip-path="url(#clip230)" d="M2139.06 1530.21 Q2142.42 1530.93 2144.3 1533.2 Q2146.19 1535.47 2146.19 1538.8 Q2146.19 1543.92 2142.68 1546.72 Q2139.16 1549.52 2132.68 1549.52 Q2130.5 1549.52 2128.18 1549.08 Q2125.89 1548.66 2123.44 1547.81 L2123.44 1543.29 Q2125.38 1544.43 2127.7 1545.01 Q2130.01 1545.58 2132.54 1545.58 Q2136.93 1545.58 2139.23 1543.85 Q2141.54 1542.11 2141.54 1538.8 Q2141.54 1535.75 2139.39 1534.03 Q2137.26 1532.3 2133.44 1532.3 L2129.41 1532.3 L2129.41 1528.45 L2133.62 1528.45 Q2137.07 1528.45 2138.9 1527.09 Q2140.73 1525.7 2140.73 1523.11 Q2140.73 1520.45 2138.83 1519.03 Q2136.96 1517.6 2133.44 1517.6 Q2131.52 1517.6 2129.32 1518.01 Q2127.12 1518.43 2124.48 1519.31 L2124.48 1515.14 Q2127.14 1514.4 2129.46 1514.03 Q2131.8 1513.66 2133.86 1513.66 Q2139.18 1513.66 2142.28 1516.09 Q2145.38 1518.5 2145.38 1522.62 Q2145.38 1525.49 2143.74 1527.48 Q2142.1 1529.45 2139.06 1530.21 Z" fill="#000000" fill-rule="nonzero" fill-opacity="1" /><path clip-path="url(#clip230)" d="M2165.06 1517.37 Q2161.45 1517.37 2159.62 1520.93 Q2157.81 1524.47 2157.81 1531.6 Q2157.81 1538.71 2159.62 1542.27 Q2161.45 1545.82 2165.06 1545.82 Q2168.69 1545.82 2170.5 1542.27 Q2172.33 1538.71 2172.33 1531.6 Q2172.33 1524.47 2170.5 1520.93 Q2168.69 1517.37 2165.06 1517.37 M2165.06 1513.66 Q2170.87 1513.66 2173.93 1518.27 Q2177 1522.85 2177 1531.6 Q2177 1540.33 2173.93 1544.94 Q2170.87 1549.52 2165.06 1549.52 Q2159.25 1549.52 2156.17 1544.94 Q2153.12 1540.33 2153.12 1531.6 Q2153.12 1522.85 2156.17 1518.27 Q2159.25 1513.66 2165.06 1513.66 Z" fill="#000000" fill-rule="nonzero" fill-opacity="1" /><polyline clip-path="url(#clip230)" style="stroke:#000000; stroke-linecap:round; stroke-linejoin:round; stroke-width:4; stroke-opacity:1; fill:none" points="172.015,1486.45 172.015,47.2441 "/>
<polyline clip-path="url(#clip230)" style="stroke:#000000; stroke-linecap:round; stroke-linejoin:round; stroke-width:4; stroke-opacity:1; fill:none" points="172.015,1486.45 190.912,1486.45 "/>
<polyline clip-path="url(#clip230)" style="stroke:#000000; stroke-linecap:round; stroke-linejoin:round; stroke-width:4; stroke-opacity:1; fill:none" points="172.015,1198.61 190.912,1198.61 "/>
<polyline clip-path="url(#clip230)" style="stroke:#000000; stroke-linecap:round; stroke-linejoin:round; stroke-width:4; stroke-opacity:1; fill:none" points="172.015,910.766 190.912,910.766 "/>
<polyline clip-path="url(#clip230)" style="stroke:#000000; stroke-linecap:round; stroke-linejoin:round; stroke-width:4; stroke-opacity:1; fill:none" points="172.015,622.926 190.912,622.926 "/>
<polyline clip-path="url(#clip230)" style="stroke:#000000; stroke-linecap:round; stroke-linejoin:round; stroke-width:4; stroke-opacity:1; fill:none" points="172.015,335.085 190.912,335.085 "/>
<polyline clip-path="url(#clip230)" style="stroke:#000000; stroke-linecap:round; stroke-linejoin:round; stroke-width:4; stroke-opacity:1; fill:none" points="172.015,47.2441 190.912,47.2441 "/>
<path clip-path="url(#clip230)" d="M124.07 1472.25 Q120.459 1472.25 118.631 1475.81 Q116.825 1479.35 116.825 1486.48 Q116.825 1493.59 118.631 1497.15 Q120.459 1500.7 124.07 1500.7 Q127.705 1500.7 129.51 1497.15 Q131.339 1493.59 131.339 1486.48 Q131.339 1479.35 129.51 1475.81 Q127.705 1472.25 124.07 1472.25 M124.07 1468.54 Q129.881 1468.54 132.936 1473.15 Q136.015 1477.73 136.015 1486.48 Q136.015 1495.21 132.936 1499.82 Q129.881 1504.4 124.07 1504.4 Q118.26 1504.4 115.182 1499.82 Q112.126 1495.21 112.126 1486.48 Q112.126 1477.73 115.182 1473.15 Q118.26 1468.54 124.07 1468.54 Z" fill="#000000" fill-rule="nonzero" fill-opacity="1" /><path clip-path="url(#clip230)" d="M54.5569 1211.95 L62.1958 1211.95 L62.1958 1185.59 L53.8856 1187.25 L53.8856 1182.99 L62.1495 1181.33 L66.8254 1181.33 L66.8254 1211.95 L74.4642 1211.95 L74.4642 1215.89 L54.5569 1215.89 L54.5569 1211.95 Z" fill="#000000" fill-rule="nonzero" fill-opacity="1" /><path clip-path="url(#clip230)" d="M93.9086 1184.41 Q90.2975 1184.41 88.4688 1187.97 Q86.6632 1191.51 86.6632 1198.64 Q86.6632 1205.75 88.4688 1209.31 Q90.2975 1212.85 93.9086 1212.85 Q97.5428 1212.85 99.3483 1209.31 Q101.177 1205.75 101.177 1198.64 Q101.177 1191.51 99.3483 1187.97 Q97.5428 1184.41 93.9086 1184.41 M93.9086 1180.7 Q99.7187 1180.7 102.774 1185.31 Q105.853 1189.89 105.853 1198.64 Q105.853 1207.37 102.774 1211.98 Q99.7187 1216.56 93.9086 1216.56 Q88.0984 1216.56 85.0197 1211.98 Q81.9642 1207.37 81.9642 1198.64 Q81.9642 1189.89 85.0197 1185.31 Q88.0984 1180.7 93.9086 1180.7 Z" fill="#000000" fill-rule="nonzero" fill-opacity="1" /><path clip-path="url(#clip230)" d="M124.07 1184.41 Q120.459 1184.41 118.631 1187.97 Q116.825 1191.51 116.825 1198.64 Q116.825 1205.75 118.631 1209.31 Q120.459 1212.85 124.07 1212.85 Q127.705 1212.85 129.51 1209.31 Q131.339 1205.75 131.339 1198.64 Q131.339 1191.51 129.51 1187.97 Q127.705 1184.41 124.07 1184.41 M124.07 1180.7 Q129.881 1180.7 132.936 1185.31 Q136.015 1189.89 136.015 1198.64 Q136.015 1207.37 132.936 1211.98 Q129.881 1216.56 124.07 1216.56 Q118.26 1216.56 115.182 1211.98 Q112.126 1207.37 112.126 1198.64 Q112.126 1189.89 115.182 1185.31 Q118.26 1180.7 124.07 1180.7 Z" fill="#000000" fill-rule="nonzero" fill-opacity="1" /><path clip-path="url(#clip230)" d="M57.7745 924.111 L74.0939 924.111 L74.0939 928.046 L52.1495 928.046 L52.1495 924.111 Q54.8115 921.357 59.3949 916.727 Q64.0013 912.074 65.1819 910.732 Q67.4272 908.209 68.3068 906.472 Q69.2096 904.713 69.2096 903.023 Q69.2096 900.269 67.2652 898.533 Q65.3439 896.797 62.2421 896.797 Q60.043 896.797 57.5893 897.56 Q55.1588 898.324 52.381 899.875 L52.381 895.153 Q55.2051 894.019 57.6588 893.44 Q60.1124 892.861 62.1495 892.861 Q67.5198 892.861 70.7142 895.547 Q73.9087 898.232 73.9087 902.722 Q73.9087 904.852 73.0985 906.773 Q72.3115 908.671 70.205 911.264 Q69.6263 911.935 66.5245 915.153 Q63.4226 918.347 57.7745 924.111 Z" fill="#000000" fill-rule="nonzero" fill-opacity="1" /><path clip-path="url(#clip230)" d="M93.9086 896.565 Q90.2975 896.565 88.4688 900.13 Q86.6632 903.671 86.6632 910.801 Q86.6632 917.908 88.4688 921.472 Q90.2975 925.014 93.9086 925.014 Q97.5428 925.014 99.3483 921.472 Q101.177 917.908 101.177 910.801 Q101.177 903.671 99.3483 900.13 Q97.5428 896.565 93.9086 896.565 M93.9086 892.861 Q99.7187 892.861 102.774 897.468 Q105.853 902.051 105.853 910.801 Q105.853 919.528 102.774 924.134 Q99.7187 928.718 93.9086 928.718 Q88.0984 928.718 85.0197 924.134 Q81.9642 919.528 81.9642 910.801 Q81.9642 902.051 85.0197 897.468 Q88.0984 892.861 93.9086 892.861 Z" fill="#000000" fill-rule="nonzero" fill-opacity="1" /><path clip-path="url(#clip230)" d="M124.07 896.565 Q120.459 896.565 118.631 900.13 Q116.825 903.671 116.825 910.801 Q116.825 917.908 118.631 921.472 Q120.459 925.014 124.07 925.014 Q127.705 925.014 129.51 921.472 Q131.339 917.908 131.339 910.801 Q131.339 903.671 129.51 900.13 Q127.705 896.565 124.07 896.565 M124.07 892.861 Q129.881 892.861 132.936 897.468 Q136.015 902.051 136.015 910.801 Q136.015 919.528 132.936 924.134 Q129.881 928.718 124.07 928.718 Q118.26 928.718 115.182 924.134 Q112.126 919.528 112.126 910.801 Q112.126 902.051 115.182 897.468 Q118.26 892.861 124.07 892.861 Z" fill="#000000" fill-rule="nonzero" fill-opacity="1" /><path clip-path="url(#clip230)" d="M67.9133 621.571 Q71.2698 622.289 73.1448 624.558 Q75.0429 626.826 75.0429 630.159 Q75.0429 635.275 71.5244 638.076 Q68.0059 640.877 61.5245 640.877 Q59.3486 640.877 57.0338 640.437 Q54.7421 640.02 52.2884 639.164 L52.2884 634.65 Q54.2328 635.784 56.5477 636.363 Q58.8625 636.942 61.3856 636.942 Q65.7837 636.942 68.0754 635.206 Q70.3902 633.47 70.3902 630.159 Q70.3902 627.104 68.2374 625.391 Q66.1078 623.655 62.2884 623.655 L58.2606 623.655 L58.2606 619.812 L62.4735 619.812 Q65.9226 619.812 67.7513 618.446 Q69.58 617.058 69.58 614.465 Q69.58 611.803 67.6819 610.391 Q65.8069 608.956 62.2884 608.956 Q60.3671 608.956 58.168 609.372 Q55.969 609.789 53.3301 610.669 L53.3301 606.502 Q55.9921 605.761 58.3069 605.391 Q60.6449 605.021 62.705 605.021 Q68.0291 605.021 71.1309 607.451 Q74.2327 609.859 74.2327 613.979 Q74.2327 616.849 72.5892 618.84 Q70.9457 620.808 67.9133 621.571 Z" fill="#000000" fill-rule="nonzero" fill-opacity="1" /><path clip-path="url(#clip230)" d="M93.9086 608.724 Q90.2975 608.724 88.4688 612.289 Q86.6632 615.831 86.6632 622.96 Q86.6632 630.067 88.4688 633.632 Q90.2975 637.173 93.9086 637.173 Q97.5428 637.173 99.3483 633.632 Q101.177 630.067 101.177 622.96 Q101.177 615.831 99.3483 612.289 Q97.5428 608.724 93.9086 608.724 M93.9086 605.021 Q99.7187 605.021 102.774 609.627 Q105.853 614.21 105.853 622.96 Q105.853 631.687 102.774 636.294 Q99.7187 640.877 93.9086 640.877 Q88.0984 640.877 85.0197 636.294 Q81.9642 631.687 81.9642 622.96 Q81.9642 614.21 85.0197 609.627 Q88.0984 605.021 93.9086 605.021 Z" fill="#000000" fill-rule="nonzero" fill-opacity="1" /><path clip-path="url(#clip230)" d="M124.07 608.724 Q120.459 608.724 118.631 612.289 Q116.825 615.831 116.825 622.96 Q116.825 630.067 118.631 633.632 Q120.459 637.173 124.07 637.173 Q127.705 637.173 129.51 633.632 Q131.339 630.067 131.339 622.96 Q131.339 615.831 129.51 612.289 Q127.705 608.724 124.07 608.724 M124.07 605.021 Q129.881 605.021 132.936 609.627 Q136.015 614.21 136.015 622.96 Q136.015 631.687 132.936 636.294 Q129.881 640.877 124.07 640.877 Q118.26 640.877 115.182 636.294 Q112.126 631.687 112.126 622.96 Q112.126 614.21 115.182 609.627 Q118.26 605.021 124.07 605.021 Z" fill="#000000" fill-rule="nonzero" fill-opacity="1" /><path clip-path="url(#clip230)" d="M66.5939 321.879 L54.7884 340.328 L66.5939 340.328 L66.5939 321.879 M65.367 317.805 L71.2466 317.805 L71.2466 340.328 L76.1772 340.328 L76.1772 344.217 L71.2466 344.217 L71.2466 352.365 L66.5939 352.365 L66.5939 344.217 L50.9921 344.217 L50.9921 339.703 L65.367 317.805 Z" fill="#000000" fill-rule="nonzero" fill-opacity="1" /><path clip-path="url(#clip230)" d="M93.9086 320.884 Q90.2975 320.884 88.4688 324.448 Q86.6632 327.99 86.6632 335.12 Q86.6632 342.226 88.4688 345.791 Q90.2975 349.332 93.9086 349.332 Q97.5428 349.332 99.3483 345.791 Q101.177 342.226 101.177 335.12 Q101.177 327.99 99.3483 324.448 Q97.5428 320.884 93.9086 320.884 M93.9086 317.18 Q99.7187 317.18 102.774 321.786 Q105.853 326.37 105.853 335.12 Q105.853 343.846 102.774 348.453 Q99.7187 353.036 93.9086 353.036 Q88.0984 353.036 85.0197 348.453 Q81.9642 343.846 81.9642 335.12 Q81.9642 326.37 85.0197 321.786 Q88.0984 317.18 93.9086 317.18 Z" fill="#000000" fill-rule="nonzero" fill-opacity="1" /><path clip-path="url(#clip230)" d="M124.07 320.884 Q120.459 320.884 118.631 324.448 Q116.825 327.99 116.825 335.12 Q116.825 342.226 118.631 345.791 Q120.459 349.332 124.07 349.332 Q127.705 349.332 129.51 345.791 Q131.339 342.226 131.339 335.12 Q131.339 327.99 129.51 324.448 Q127.705 320.884 124.07 320.884 M124.07 317.18 Q129.881 317.18 132.936 321.786 Q136.015 326.37 136.015 335.12 Q136.015 343.846 132.936 348.453 Q129.881 353.036 124.07 353.036 Q118.26 353.036 115.182 348.453 Q112.126 343.846 112.126 335.12 Q112.126 326.37 115.182 321.786 Q118.26 317.18 124.07 317.18 Z" fill="#000000" fill-rule="nonzero" fill-opacity="1" /><path clip-path="url(#clip230)" d="M53.793 29.9641 L72.1494 29.9641 L72.1494 33.8993 L58.0754 33.8993 L58.0754 42.3714 Q59.0939 42.0242 60.1124 41.8622 Q61.131 41.677 62.1495 41.677 Q67.9365 41.677 71.3161 44.8483 Q74.6957 48.0196 74.6957 53.4362 Q74.6957 59.0149 71.2235 62.1167 Q67.7513 65.1954 61.4319 65.1954 Q59.256 65.1954 56.9875 64.825 Q54.7421 64.4547 52.3347 63.7139 L52.3347 59.0149 Q54.418 60.1491 56.6402 60.7047 Q58.8625 61.2602 61.3393 61.2602 Q65.3439 61.2602 67.6819 59.1538 Q70.0198 57.0473 70.0198 53.4362 Q70.0198 49.8251 67.6819 47.7186 Q65.3439 45.6122 61.3393 45.6122 Q59.4643 45.6122 57.5893 46.0288 Q55.7375 46.4455 53.793 47.3251 L53.793 29.9641 Z" fill="#000000" fill-rule="nonzero" fill-opacity="1" /><path clip-path="url(#clip230)" d="M93.9086 33.0428 Q90.2975 33.0428 88.4688 36.6076 Q86.6632 40.1492 86.6632 47.2788 Q86.6632 54.3853 88.4688 57.9501 Q90.2975 61.4917 93.9086 61.4917 Q97.5428 61.4917 99.3483 57.9501 Q101.177 54.3853 101.177 47.2788 Q101.177 40.1492 99.3483 36.6076 Q97.5428 33.0428 93.9086 33.0428 M93.9086 29.3391 Q99.7187 29.3391 102.774 33.9456 Q105.853 38.5289 105.853 47.2788 Q105.853 56.0056 102.774 60.6121 Q99.7187 65.1954 93.9086 65.1954 Q88.0984 65.1954 85.0197 60.6121 Q81.9642 56.0056 81.9642 47.2788 Q81.9642 38.5289 85.0197 33.9456 Q88.0984 29.3391 93.9086 29.3391 Z" fill="#000000" fill-rule="nonzero" fill-opacity="1" /><path clip-path="url(#clip230)" d="M124.07 33.0428 Q120.459 33.0428 118.631 36.6076 Q116.825 40.1492 116.825 47.2788 Q116.825 54.3853 118.631 57.9501 Q120.459 61.4917 124.07 61.4917 Q127.705 61.4917 129.51 57.9501 Q131.339 54.3853 131.339 47.2788 Q131.339 40.1492 129.51 36.6076 Q127.705 33.0428 124.07 33.0428 M124.07 29.3391 Q129.881 29.3391 132.936 33.9456 Q136.015 38.5289 136.015 47.2788 Q136.015 56.0056 132.936 60.6121 Q129.881 65.1954 124.07 65.1954 Q118.26 65.1954 115.182 60.6121 Q112.126 56.0056 112.126 47.2788 Q112.126 38.5289 115.182 33.9456 Q118.26 29.3391 124.07 29.3391 Z" fill="#000000" fill-rule="nonzero" fill-opacity="1" /><path clip-path="url(#clip232)" d="M291.959 47.2441 L291.959 1486.45 L305.724 1486.45 L305.724 47.2441 L291.959 47.2441 L291.959 47.2441  Z" fill="#009af9" fill-rule="evenodd" fill-opacity="1"/>
<polyline clip-path="url(#clip232)" style="stroke:#000000; stroke-linecap:round; stroke-linejoin:round; stroke-width:4; stroke-opacity:1; fill:none" points="291.959,47.2441 291.959,1486.45 305.724,1486.45 305.724,47.2441 291.959,47.2441 "/>
<path clip-path="url(#clip232)" d="M305.724 1486.45 L305.724 1486.45 L319.489 1486.45 L319.489 1486.45 L305.724 1486.45 L305.724 1486.45  Z" fill="#009af9" fill-rule="evenodd" fill-opacity="1"/>
<polyline clip-path="url(#clip232)" style="stroke:#000000; stroke-linecap:round; stroke-linejoin:round; stroke-width:4; stroke-opacity:1; fill:none" points="305.724,1486.45 305.724,1486.45 319.489,1486.45 305.724,1486.45 "/>
<path clip-path="url(#clip232)" d="M319.489 1486.45 L319.489 1486.45 L333.254 1486.45 L333.254 1486.45 L319.489 1486.45 L319.489 1486.45  Z" fill="#009af9" fill-rule="evenodd" fill-opacity="1"/>
<polyline clip-path="url(#clip232)" style="stroke:#000000; stroke-linecap:round; stroke-linejoin:round; stroke-width:4; stroke-opacity:1; fill:none" points="319.489,1486.45 319.489,1486.45 333.254,1486.45 319.489,1486.45 "/>
<path clip-path="url(#clip232)" d="M333.254 1486.45 L333.254 1486.45 L347.019 1486.45 L347.019 1486.45 L333.254 1486.45 L333.254 1486.45  Z" fill="#009af9" fill-rule="evenodd" fill-opacity="1"/>
<polyline clip-path="url(#clip232)" style="stroke:#000000; stroke-linecap:round; stroke-linejoin:round; stroke-width:4; stroke-opacity:1; fill:none" points="333.254,1486.45 333.254,1486.45 347.019,1486.45 333.254,1486.45 "/>
<path clip-path="url(#clip232)" d="M347.019 1486.45 L347.019 1486.45 L360.784 1486.45 L360.784 1486.45 L347.019 1486.45 L347.019 1486.45  Z" fill="#009af9" fill-rule="evenodd" fill-opacity="1"/>
<polyline clip-path="url(#clip232)" style="stroke:#000000; stroke-linecap:round; stroke-linejoin:round; stroke-width:4; stroke-opacity:1; fill:none" points="347.019,1486.45 347.019,1486.45 360.784,1486.45 347.019,1486.45 "/>
<path clip-path="url(#clip232)" d="M360.784 694.886 L360.784 1486.45 L374.549 1486.45 L374.549 694.886 L360.784 694.886 L360.784 694.886  Z" fill="#009af9" fill-rule="evenodd" fill-opacity="1"/>
<polyline clip-path="url(#clip232)" style="stroke:#000000; stroke-linecap:round; stroke-linejoin:round; stroke-width:4; stroke-opacity:1; fill:none" points="360.784,694.886 360.784,1486.45 374.549,1486.45 374.549,694.886 360.784,694.886 "/>
<path clip-path="url(#clip232)" d="M374.549 1486.45 L374.549 1486.45 L388.314 1486.45 L388.314 1486.45 L374.549 1486.45 L374.549 1486.45  Z" fill="#009af9" fill-rule="evenodd" fill-opacity="1"/>
<polyline clip-path="url(#clip232)" style="stroke:#000000; stroke-linecap:round; stroke-linejoin:round; stroke-width:4; stroke-opacity:1; fill:none" points="374.549,1486.45 374.549,1486.45 388.314,1486.45 374.549,1486.45 "/>
<path clip-path="url(#clip232)" d="M388.314 1486.45 L388.314 1486.45 L402.079 1486.45 L402.079 1486.45 L388.314 1486.45 L388.314 1486.45  Z" fill="#009af9" fill-rule="evenodd" fill-opacity="1"/>
<polyline clip-path="url(#clip232)" style="stroke:#000000; stroke-linecap:round; stroke-linejoin:round; stroke-width:4; stroke-opacity:1; fill:none" points="388.314,1486.45 388.314,1486.45 402.079,1486.45 388.314,1486.45 "/>
<path clip-path="url(#clip232)" d="M402.079 1486.45 L402.079 1486.45 L415.844 1486.45 L415.844 1486.45 L402.079 1486.45 L402.079 1486.45  Z" fill="#009af9" fill-rule="evenodd" fill-opacity="1"/>
<polyline clip-path="url(#clip232)" style="stroke:#000000; stroke-linecap:round; stroke-linejoin:round; stroke-width:4; stroke-opacity:1; fill:none" points="402.079,1486.45 402.079,1486.45 415.844,1486.45 402.079,1486.45 "/>
<path clip-path="url(#clip232)" d="M415.844 1486.45 L415.844 1486.45 L429.609 1486.45 L429.609 1486.45 L415.844 1486.45 L415.844 1486.45  Z" fill="#009af9" fill-rule="evenodd" fill-opacity="1"/>
<polyline clip-path="url(#clip232)" style="stroke:#000000; stroke-linecap:round; stroke-linejoin:round; stroke-width:4; stroke-opacity:1; fill:none" points="415.844,1486.45 415.844,1486.45 429.609,1486.45 415.844,1486.45 "/>
<path clip-path="url(#clip232)" d="M429.609 1483.57 L429.609 1486.45 L443.373 1486.45 L443.373 1483.57 L429.609 1483.57 L429.609 1483.57  Z" fill="#009af9" fill-rule="evenodd" fill-opacity="1"/>
<polyline clip-path="url(#clip232)" style="stroke:#000000; stroke-linecap:round; stroke-linejoin:round; stroke-width:4; stroke-opacity:1; fill:none" points="429.609,1483.57 429.609,1486.45 443.373,1486.45 443.373,1483.57 429.609,1483.57 "/>
<path clip-path="url(#clip232)" d="M443.373 1486.45 L443.373 1486.45 L457.138 1486.45 L457.138 1486.45 L443.373 1486.45 L443.373 1486.45  Z" fill="#009af9" fill-rule="evenodd" fill-opacity="1"/>
<polyline clip-path="url(#clip232)" style="stroke:#000000; stroke-linecap:round; stroke-linejoin:round; stroke-width:4; stroke-opacity:1; fill:none" points="443.373,1486.45 443.373,1486.45 457.138,1486.45 443.373,1486.45 "/>
<path clip-path="url(#clip232)" d="M457.138 1486.45 L457.138 1486.45 L470.903 1486.45 L470.903 1486.45 L457.138 1486.45 L457.138 1486.45  Z" fill="#009af9" fill-rule="evenodd" fill-opacity="1"/>
<polyline clip-path="url(#clip232)" style="stroke:#000000; stroke-linecap:round; stroke-linejoin:round; stroke-width:4; stroke-opacity:1; fill:none" points="457.138,1486.45 457.138,1486.45 470.903,1486.45 457.138,1486.45 "/>
<path clip-path="url(#clip232)" d="M470.903 1486.45 L470.903 1486.45 L484.668 1486.45 L484.668 1486.45 L470.903 1486.45 L470.903 1486.45  Z" fill="#009af9" fill-rule="evenodd" fill-opacity="1"/>
<polyline clip-path="url(#clip232)" style="stroke:#000000; stroke-linecap:round; stroke-linejoin:round; stroke-width:4; stroke-opacity:1; fill:none" points="470.903,1486.45 470.903,1486.45 484.668,1486.45 470.903,1486.45 "/>
<path clip-path="url(#clip232)" d="M484.668 1486.45 L484.668 1486.45 L498.433 1486.45 L498.433 1486.45 L484.668 1486.45 L484.668 1486.45  Z" fill="#009af9" fill-rule="evenodd" fill-opacity="1"/>
<polyline clip-path="url(#clip232)" style="stroke:#000000; stroke-linecap:round; stroke-linejoin:round; stroke-width:4; stroke-opacity:1; fill:none" points="484.668,1486.45 484.668,1486.45 498.433,1486.45 484.668,1486.45 "/>
<path clip-path="url(#clip232)" d="M498.433 1451.91 L498.433 1486.45 L512.198 1486.45 L512.198 1451.91 L498.433 1451.91 L498.433 1451.91  Z" fill="#009af9" fill-rule="evenodd" fill-opacity="1"/>
<polyline clip-path="url(#clip232)" style="stroke:#000000; stroke-linecap:round; stroke-linejoin:round; stroke-width:4; stroke-opacity:1; fill:none" points="498.433,1451.91 498.433,1486.45 512.198,1486.45 512.198,1451.91 498.433,1451.91 "/>
<path clip-path="url(#clip232)" d="M512.198 1486.45 L512.198 1486.45 L525.963 1486.45 L525.963 1486.45 L512.198 1486.45 L512.198 1486.45  Z" fill="#009af9" fill-rule="evenodd" fill-opacity="1"/>
<polyline clip-path="url(#clip232)" style="stroke:#000000; stroke-linecap:round; stroke-linejoin:round; stroke-width:4; stroke-opacity:1; fill:none" points="512.198,1486.45 512.198,1486.45 525.963,1486.45 512.198,1486.45 "/>
<path clip-path="url(#clip232)" d="M525.963 1486.45 L525.963 1486.45 L539.728 1486.45 L539.728 1486.45 L525.963 1486.45 L525.963 1486.45  Z" fill="#009af9" fill-rule="evenodd" fill-opacity="1"/>
<polyline clip-path="url(#clip232)" style="stroke:#000000; stroke-linecap:round; stroke-linejoin:round; stroke-width:4; stroke-opacity:1; fill:none" points="525.963,1486.45 525.963,1486.45 539.728,1486.45 525.963,1486.45 "/>
<path clip-path="url(#clip232)" d="M539.728 1486.45 L539.728 1486.45 L553.493 1486.45 L553.493 1486.45 L539.728 1486.45 L539.728 1486.45  Z" fill="#009af9" fill-rule="evenodd" fill-opacity="1"/>
<polyline clip-path="url(#clip232)" style="stroke:#000000; stroke-linecap:round; stroke-linejoin:round; stroke-width:4; stroke-opacity:1; fill:none" points="539.728,1486.45 539.728,1486.45 553.493,1486.45 539.728,1486.45 "/>
<path clip-path="url(#clip232)" d="M553.493 1486.45 L553.493 1486.45 L567.258 1486.45 L567.258 1486.45 L553.493 1486.45 L553.493 1486.45  Z" fill="#009af9" fill-rule="evenodd" fill-opacity="1"/>
<polyline clip-path="url(#clip232)" style="stroke:#000000; stroke-linecap:round; stroke-linejoin:round; stroke-width:4; stroke-opacity:1; fill:none" points="553.493,1486.45 553.493,1486.45 567.258,1486.45 553.493,1486.45 "/>
<path clip-path="url(#clip232)" d="M567.258 1480.69 L567.258 1486.45 L581.022 1486.45 L581.022 1480.69 L567.258 1480.69 L567.258 1480.69  Z" fill="#009af9" fill-rule="evenodd" fill-opacity="1"/>
<polyline clip-path="url(#clip232)" style="stroke:#000000; stroke-linecap:round; stroke-linejoin:round; stroke-width:4; stroke-opacity:1; fill:none" points="567.258,1480.69 567.258,1486.45 581.022,1486.45 581.022,1480.69 567.258,1480.69 "/>
<path clip-path="url(#clip232)" d="M581.022 1486.45 L581.022 1486.45 L594.787 1486.45 L594.787 1486.45 L581.022 1486.45 L581.022 1486.45  Z" fill="#009af9" fill-rule="evenodd" fill-opacity="1"/>
<polyline clip-path="url(#clip232)" style="stroke:#000000; stroke-linecap:round; stroke-linejoin:round; stroke-width:4; stroke-opacity:1; fill:none" points="581.022,1486.45 581.022,1486.45 594.787,1486.45 581.022,1486.45 "/>
<path clip-path="url(#clip232)" d="M594.787 1486.45 L594.787 1486.45 L608.552 1486.45 L608.552 1486.45 L594.787 1486.45 L594.787 1486.45  Z" fill="#009af9" fill-rule="evenodd" fill-opacity="1"/>
<polyline clip-path="url(#clip232)" style="stroke:#000000; stroke-linecap:round; stroke-linejoin:round; stroke-width:4; stroke-opacity:1; fill:none" points="594.787,1486.45 594.787,1486.45 608.552,1486.45 594.787,1486.45 "/>
<path clip-path="url(#clip232)" d="M608.552 1486.45 L608.552 1486.45 L622.317 1486.45 L622.317 1486.45 L608.552 1486.45 L608.552 1486.45  Z" fill="#009af9" fill-rule="evenodd" fill-opacity="1"/>
<polyline clip-path="url(#clip232)" style="stroke:#000000; stroke-linecap:round; stroke-linejoin:round; stroke-width:4; stroke-opacity:1; fill:none" points="608.552,1486.45 608.552,1486.45 622.317,1486.45 608.552,1486.45 "/>
<path clip-path="url(#clip232)" d="M622.317 1486.45 L622.317 1486.45 L636.082 1486.45 L636.082 1486.45 L622.317 1486.45 L622.317 1486.45  Z" fill="#009af9" fill-rule="evenodd" fill-opacity="1"/>
<polyline clip-path="url(#clip232)" style="stroke:#000000; stroke-linecap:round; stroke-linejoin:round; stroke-width:4; stroke-opacity:1; fill:none" points="622.317,1486.45 622.317,1486.45 636.082,1486.45 622.317,1486.45 "/>
<path clip-path="url(#clip232)" d="M636.082 1486.45 L636.082 1486.45 L649.847 1486.45 L649.847 1486.45 L636.082 1486.45 L636.082 1486.45  Z" fill="#009af9" fill-rule="evenodd" fill-opacity="1"/>
<polyline clip-path="url(#clip232)" style="stroke:#000000; stroke-linecap:round; stroke-linejoin:round; stroke-width:4; stroke-opacity:1; fill:none" points="636.082,1486.45 636.082,1486.45 649.847,1486.45 636.082,1486.45 "/>
<path clip-path="url(#clip232)" d="M649.847 1486.45 L649.847 1486.45 L663.612 1486.45 L663.612 1486.45 L649.847 1486.45 L649.847 1486.45  Z" fill="#009af9" fill-rule="evenodd" fill-opacity="1"/>
<polyline clip-path="url(#clip232)" style="stroke:#000000; stroke-linecap:round; stroke-linejoin:round; stroke-width:4; stroke-opacity:1; fill:none" points="649.847,1486.45 649.847,1486.45 663.612,1486.45 649.847,1486.45 "/>
<path clip-path="url(#clip232)" d="M663.612 1486.45 L663.612 1486.45 L677.377 1486.45 L677.377 1486.45 L663.612 1486.45 L663.612 1486.45  Z" fill="#009af9" fill-rule="evenodd" fill-opacity="1"/>
<polyline clip-path="url(#clip232)" style="stroke:#000000; stroke-linecap:round; stroke-linejoin:round; stroke-width:4; stroke-opacity:1; fill:none" points="663.612,1486.45 663.612,1486.45 677.377,1486.45 663.612,1486.45 "/>
<path clip-path="url(#clip232)" d="M677.377 1486.45 L677.377 1486.45 L691.142 1486.45 L691.142 1486.45 L677.377 1486.45 L677.377 1486.45  Z" fill="#009af9" fill-rule="evenodd" fill-opacity="1"/>
<polyline clip-path="url(#clip232)" style="stroke:#000000; stroke-linecap:round; stroke-linejoin:round; stroke-width:4; stroke-opacity:1; fill:none" points="677.377,1486.45 677.377,1486.45 691.142,1486.45 677.377,1486.45 "/>
<path clip-path="url(#clip232)" d="M691.142 1486.45 L691.142 1486.45 L704.907 1486.45 L704.907 1486.45 L691.142 1486.45 L691.142 1486.45  Z" fill="#009af9" fill-rule="evenodd" fill-opacity="1"/>
<polyline clip-path="url(#clip232)" style="stroke:#000000; stroke-linecap:round; stroke-linejoin:round; stroke-width:4; stroke-opacity:1; fill:none" points="691.142,1486.45 691.142,1486.45 704.907,1486.45 691.142,1486.45 "/>
<path clip-path="url(#clip232)" d="M704.907 1486.45 L704.907 1486.45 L718.672 1486.45 L718.672 1486.45 L704.907 1486.45 L704.907 1486.45  Z" fill="#009af9" fill-rule="evenodd" fill-opacity="1"/>
<polyline clip-path="url(#clip232)" style="stroke:#000000; stroke-linecap:round; stroke-linejoin:round; stroke-width:4; stroke-opacity:1; fill:none" points="704.907,1486.45 704.907,1486.45 718.672,1486.45 704.907,1486.45 "/>
<path clip-path="url(#clip232)" d="M718.672 1486.45 L718.672 1486.45 L732.436 1486.45 L732.436 1486.45 L718.672 1486.45 L718.672 1486.45  Z" fill="#009af9" fill-rule="evenodd" fill-opacity="1"/>
<polyline clip-path="url(#clip232)" style="stroke:#000000; stroke-linecap:round; stroke-linejoin:round; stroke-width:4; stroke-opacity:1; fill:none" points="718.672,1486.45 718.672,1486.45 732.436,1486.45 718.672,1486.45 "/>
<path clip-path="url(#clip232)" d="M732.436 1486.45 L732.436 1486.45 L746.201 1486.45 L746.201 1486.45 L732.436 1486.45 L732.436 1486.45  Z" fill="#009af9" fill-rule="evenodd" fill-opacity="1"/>
<polyline clip-path="url(#clip232)" style="stroke:#000000; stroke-linecap:round; stroke-linejoin:round; stroke-width:4; stroke-opacity:1; fill:none" points="732.436,1486.45 732.436,1486.45 746.201,1486.45 732.436,1486.45 "/>
<path clip-path="url(#clip232)" d="M746.201 1486.45 L746.201 1486.45 L759.966 1486.45 L759.966 1486.45 L746.201 1486.45 L746.201 1486.45  Z" fill="#009af9" fill-rule="evenodd" fill-opacity="1"/>
<polyline clip-path="url(#clip232)" style="stroke:#000000; stroke-linecap:round; stroke-linejoin:round; stroke-width:4; stroke-opacity:1; fill:none" points="746.201,1486.45 746.201,1486.45 759.966,1486.45 746.201,1486.45 "/>
<path clip-path="url(#clip232)" d="M759.966 1486.45 L759.966 1486.45 L773.731 1486.45 L773.731 1486.45 L759.966 1486.45 L759.966 1486.45  Z" fill="#009af9" fill-rule="evenodd" fill-opacity="1"/>
<polyline clip-path="url(#clip232)" style="stroke:#000000; stroke-linecap:round; stroke-linejoin:round; stroke-width:4; stroke-opacity:1; fill:none" points="759.966,1486.45 759.966,1486.45 773.731,1486.45 759.966,1486.45 "/>
<path clip-path="url(#clip232)" d="M773.731 1184.22 L773.731 1486.45 L787.496 1486.45 L787.496 1184.22 L773.731 1184.22 L773.731 1184.22  Z" fill="#009af9" fill-rule="evenodd" fill-opacity="1"/>
<polyline clip-path="url(#clip232)" style="stroke:#000000; stroke-linecap:round; stroke-linejoin:round; stroke-width:4; stroke-opacity:1; fill:none" points="773.731,1184.22 773.731,1486.45 787.496,1486.45 787.496,1184.22 773.731,1184.22 "/>
<path clip-path="url(#clip232)" d="M787.496 1486.45 L787.496 1486.45 L801.261 1486.45 L801.261 1486.45 L787.496 1486.45 L787.496 1486.45  Z" fill="#009af9" fill-rule="evenodd" fill-opacity="1"/>
<polyline clip-path="url(#clip232)" style="stroke:#000000; stroke-linecap:round; stroke-linejoin:round; stroke-width:4; stroke-opacity:1; fill:none" points="787.496,1486.45 787.496,1486.45 801.261,1486.45 787.496,1486.45 "/>
<path clip-path="url(#clip232)" d="M801.261 1486.45 L801.261 1486.45 L815.026 1486.45 L815.026 1486.45 L801.261 1486.45 L801.261 1486.45  Z" fill="#009af9" fill-rule="evenodd" fill-opacity="1"/>
<polyline clip-path="url(#clip232)" style="stroke:#000000; stroke-linecap:round; stroke-linejoin:round; stroke-width:4; stroke-opacity:1; fill:none" points="801.261,1486.45 801.261,1486.45 815.026,1486.45 801.261,1486.45 "/>
<path clip-path="url(#clip232)" d="M815.026 1486.45 L815.026 1486.45 L828.791 1486.45 L828.791 1486.45 L815.026 1486.45 L815.026 1486.45  Z" fill="#009af9" fill-rule="evenodd" fill-opacity="1"/>
<polyline clip-path="url(#clip232)" style="stroke:#000000; stroke-linecap:round; stroke-linejoin:round; stroke-width:4; stroke-opacity:1; fill:none" points="815.026,1486.45 815.026,1486.45 828.791,1486.45 815.026,1486.45 "/>
<path clip-path="url(#clip232)" d="M828.791 1486.45 L828.791 1486.45 L842.556 1486.45 L842.556 1486.45 L828.791 1486.45 L828.791 1486.45  Z" fill="#009af9" fill-rule="evenodd" fill-opacity="1"/>
<polyline clip-path="url(#clip232)" style="stroke:#000000; stroke-linecap:round; stroke-linejoin:round; stroke-width:4; stroke-opacity:1; fill:none" points="828.791,1486.45 828.791,1486.45 842.556,1486.45 828.791,1486.45 "/>
<path clip-path="url(#clip232)" d="M842.556 1313.74 L842.556 1486.45 L856.321 1486.45 L856.321 1313.74 L842.556 1313.74 L842.556 1313.74  Z" fill="#009af9" fill-rule="evenodd" fill-opacity="1"/>
<polyline clip-path="url(#clip232)" style="stroke:#000000; stroke-linecap:round; stroke-linejoin:round; stroke-width:4; stroke-opacity:1; fill:none" points="842.556,1313.74 842.556,1486.45 856.321,1486.45 856.321,1313.74 842.556,1313.74 "/>
<path clip-path="url(#clip232)" d="M856.321 1486.45 L856.321 1486.45 L870.086 1486.45 L870.086 1486.45 L856.321 1486.45 L856.321 1486.45  Z" fill="#009af9" fill-rule="evenodd" fill-opacity="1"/>
<polyline clip-path="url(#clip232)" style="stroke:#000000; stroke-linecap:round; stroke-linejoin:round; stroke-width:4; stroke-opacity:1; fill:none" points="856.321,1486.45 856.321,1486.45 870.086,1486.45 856.321,1486.45 "/>
<path clip-path="url(#clip232)" d="M870.086 1486.45 L870.086 1486.45 L883.85 1486.45 L883.85 1486.45 L870.086 1486.45 L870.086 1486.45  Z" fill="#009af9" fill-rule="evenodd" fill-opacity="1"/>
<polyline clip-path="url(#clip232)" style="stroke:#000000; stroke-linecap:round; stroke-linejoin:round; stroke-width:4; stroke-opacity:1; fill:none" points="870.086,1486.45 870.086,1486.45 883.85,1486.45 870.086,1486.45 "/>
<path clip-path="url(#clip232)" d="M883.85 1486.45 L883.85 1486.45 L897.615 1486.45 L897.615 1486.45 L883.85 1486.45 L883.85 1486.45  Z" fill="#009af9" fill-rule="evenodd" fill-opacity="1"/>
<polyline clip-path="url(#clip232)" style="stroke:#000000; stroke-linecap:round; stroke-linejoin:round; stroke-width:4; stroke-opacity:1; fill:none" points="883.85,1486.45 883.85,1486.45 897.615,1486.45 883.85,1486.45 "/>
<path clip-path="url(#clip232)" d="M897.615 1486.45 L897.615 1486.45 L911.38 1486.45 L911.38 1486.45 L897.615 1486.45 L897.615 1486.45  Z" fill="#009af9" fill-rule="evenodd" fill-opacity="1"/>
<polyline clip-path="url(#clip232)" style="stroke:#000000; stroke-linecap:round; stroke-linejoin:round; stroke-width:4; stroke-opacity:1; fill:none" points="897.615,1486.45 897.615,1486.45 911.38,1486.45 897.615,1486.45 "/>
<path clip-path="url(#clip232)" d="M911.38 1486.45 L911.38 1486.45 L925.145 1486.45 L925.145 1486.45 L911.38 1486.45 L911.38 1486.45  Z" fill="#009af9" fill-rule="evenodd" fill-opacity="1"/>
<polyline clip-path="url(#clip232)" style="stroke:#000000; stroke-linecap:round; stroke-linejoin:round; stroke-width:4; stroke-opacity:1; fill:none" points="911.38,1486.45 911.38,1486.45 925.145,1486.45 911.38,1486.45 "/>
<path clip-path="url(#clip232)" d="M925.145 1486.45 L925.145 1486.45 L938.91 1486.45 L938.91 1486.45 L925.145 1486.45 L925.145 1486.45  Z" fill="#009af9" fill-rule="evenodd" fill-opacity="1"/>
<polyline clip-path="url(#clip232)" style="stroke:#000000; stroke-linecap:round; stroke-linejoin:round; stroke-width:4; stroke-opacity:1; fill:none" points="925.145,1486.45 925.145,1486.45 938.91,1486.45 925.145,1486.45 "/>
<path clip-path="url(#clip232)" d="M938.91 1486.45 L938.91 1486.45 L952.675 1486.45 L952.675 1486.45 L938.91 1486.45 L938.91 1486.45  Z" fill="#009af9" fill-rule="evenodd" fill-opacity="1"/>
<polyline clip-path="url(#clip232)" style="stroke:#000000; stroke-linecap:round; stroke-linejoin:round; stroke-width:4; stroke-opacity:1; fill:none" points="938.91,1486.45 938.91,1486.45 952.675,1486.45 938.91,1486.45 "/>
<path clip-path="url(#clip232)" d="M952.675 1486.45 L952.675 1486.45 L966.44 1486.45 L966.44 1486.45 L952.675 1486.45 L952.675 1486.45  Z" fill="#009af9" fill-rule="evenodd" fill-opacity="1"/>
<polyline clip-path="url(#clip232)" style="stroke:#000000; stroke-linecap:round; stroke-linejoin:round; stroke-width:4; stroke-opacity:1; fill:none" points="952.675,1486.45 952.675,1486.45 966.44,1486.45 952.675,1486.45 "/>
<path clip-path="url(#clip232)" d="M966.44 1486.45 L966.44 1486.45 L980.205 1486.45 L980.205 1486.45 L966.44 1486.45 L966.44 1486.45  Z" fill="#009af9" fill-rule="evenodd" fill-opacity="1"/>
<polyline clip-path="url(#clip232)" style="stroke:#000000; stroke-linecap:round; stroke-linejoin:round; stroke-width:4; stroke-opacity:1; fill:none" points="966.44,1486.45 966.44,1486.45 980.205,1486.45 966.44,1486.45 "/>
<path clip-path="url(#clip232)" d="M980.205 1480.69 L980.205 1486.45 L993.97 1486.45 L993.97 1480.69 L980.205 1480.69 L980.205 1480.69  Z" fill="#009af9" fill-rule="evenodd" fill-opacity="1"/>
<polyline clip-path="url(#clip232)" style="stroke:#000000; stroke-linecap:round; stroke-linejoin:round; stroke-width:4; stroke-opacity:1; fill:none" points="980.205,1480.69 980.205,1486.45 993.97,1486.45 993.97,1480.69 980.205,1480.69 "/>
<path clip-path="url(#clip232)" d="M993.97 1486.45 L993.97 1486.45 L1007.73 1486.45 L1007.73 1486.45 L993.97 1486.45 L993.97 1486.45  Z" fill="#009af9" fill-rule="evenodd" fill-opacity="1"/>
<polyline clip-path="url(#clip232)" style="stroke:#000000; stroke-linecap:round; stroke-linejoin:round; stroke-width:4; stroke-opacity:1; fill:none" points="993.97,1486.45 993.97,1486.45 1007.73,1486.45 993.97,1486.45 "/>
<path clip-path="url(#clip232)" d="M1007.73 1486.45 L1007.73 1486.45 L1021.5 1486.45 L1021.5 1486.45 L1007.73 1486.45 L1007.73 1486.45  Z" fill="#009af9" fill-rule="evenodd" fill-opacity="1"/>
<polyline clip-path="url(#clip232)" style="stroke:#000000; stroke-linecap:round; stroke-linejoin:round; stroke-width:4; stroke-opacity:1; fill:none" points="1007.73,1486.45 1007.73,1486.45 1021.5,1486.45 1007.73,1486.45 "/>
<path clip-path="url(#clip232)" d="M1021.5 1486.45 L1021.5 1486.45 L1035.26 1486.45 L1035.26 1486.45 L1021.5 1486.45 L1021.5 1486.45  Z" fill="#009af9" fill-rule="evenodd" fill-opacity="1"/>
<polyline clip-path="url(#clip232)" style="stroke:#000000; stroke-linecap:round; stroke-linejoin:round; stroke-width:4; stroke-opacity:1; fill:none" points="1021.5,1486.45 1021.5,1486.45 1035.26,1486.45 1021.5,1486.45 "/>
<path clip-path="url(#clip232)" d="M1035.26 1486.45 L1035.26 1486.45 L1049.03 1486.45 L1049.03 1486.45 L1035.26 1486.45 L1035.26 1486.45  Z" fill="#009af9" fill-rule="evenodd" fill-opacity="1"/>
<polyline clip-path="url(#clip232)" style="stroke:#000000; stroke-linecap:round; stroke-linejoin:round; stroke-width:4; stroke-opacity:1; fill:none" points="1035.26,1486.45 1035.26,1486.45 1049.03,1486.45 1035.26,1486.45 "/>
<path clip-path="url(#clip232)" d="M1049.03 1486.45 L1049.03 1486.45 L1062.79 1486.45 L1062.79 1486.45 L1049.03 1486.45 L1049.03 1486.45  Z" fill="#009af9" fill-rule="evenodd" fill-opacity="1"/>
<polyline clip-path="url(#clip232)" style="stroke:#000000; stroke-linecap:round; stroke-linejoin:round; stroke-width:4; stroke-opacity:1; fill:none" points="1049.03,1486.45 1049.03,1486.45 1062.79,1486.45 1049.03,1486.45 "/>
<path clip-path="url(#clip232)" d="M1062.79 1486.45 L1062.79 1486.45 L1076.56 1486.45 L1076.56 1486.45 L1062.79 1486.45 L1062.79 1486.45  Z" fill="#009af9" fill-rule="evenodd" fill-opacity="1"/>
<polyline clip-path="url(#clip232)" style="stroke:#000000; stroke-linecap:round; stroke-linejoin:round; stroke-width:4; stroke-opacity:1; fill:none" points="1062.79,1486.45 1062.79,1486.45 1076.56,1486.45 1062.79,1486.45 "/>
<path clip-path="url(#clip232)" d="M1076.56 1486.45 L1076.56 1486.45 L1090.32 1486.45 L1090.32 1486.45 L1076.56 1486.45 L1076.56 1486.45  Z" fill="#009af9" fill-rule="evenodd" fill-opacity="1"/>
<polyline clip-path="url(#clip232)" style="stroke:#000000; stroke-linecap:round; stroke-linejoin:round; stroke-width:4; stroke-opacity:1; fill:none" points="1076.56,1486.45 1076.56,1486.45 1090.32,1486.45 1076.56,1486.45 "/>
<path clip-path="url(#clip232)" d="M1090.32 1486.45 L1090.32 1486.45 L1104.09 1486.45 L1104.09 1486.45 L1090.32 1486.45 L1090.32 1486.45  Z" fill="#009af9" fill-rule="evenodd" fill-opacity="1"/>
<polyline clip-path="url(#clip232)" style="stroke:#000000; stroke-linecap:round; stroke-linejoin:round; stroke-width:4; stroke-opacity:1; fill:none" points="1090.32,1486.45 1090.32,1486.45 1104.09,1486.45 1090.32,1486.45 "/>
<path clip-path="url(#clip232)" d="M1104.09 1486.45 L1104.09 1486.45 L1117.85 1486.45 L1117.85 1486.45 L1104.09 1486.45 L1104.09 1486.45  Z" fill="#009af9" fill-rule="evenodd" fill-opacity="1"/>
<polyline clip-path="url(#clip232)" style="stroke:#000000; stroke-linecap:round; stroke-linejoin:round; stroke-width:4; stroke-opacity:1; fill:none" points="1104.09,1486.45 1104.09,1486.45 1117.85,1486.45 1104.09,1486.45 "/>
<path clip-path="url(#clip232)" d="M1117.85 1486.45 L1117.85 1486.45 L1131.62 1486.45 L1131.62 1486.45 L1117.85 1486.45 L1117.85 1486.45  Z" fill="#009af9" fill-rule="evenodd" fill-opacity="1"/>
<polyline clip-path="url(#clip232)" style="stroke:#000000; stroke-linecap:round; stroke-linejoin:round; stroke-width:4; stroke-opacity:1; fill:none" points="1117.85,1486.45 1117.85,1486.45 1131.62,1486.45 1117.85,1486.45 "/>
<path clip-path="url(#clip232)" d="M1131.62 1486.45 L1131.62 1486.45 L1145.38 1486.45 L1145.38 1486.45 L1131.62 1486.45 L1131.62 1486.45  Z" fill="#009af9" fill-rule="evenodd" fill-opacity="1"/>
<polyline clip-path="url(#clip232)" style="stroke:#000000; stroke-linecap:round; stroke-linejoin:round; stroke-width:4; stroke-opacity:1; fill:none" points="1131.62,1486.45 1131.62,1486.45 1145.38,1486.45 1131.62,1486.45 "/>
<path clip-path="url(#clip232)" d="M1145.38 1486.45 L1145.38 1486.45 L1159.15 1486.45 L1159.15 1486.45 L1145.38 1486.45 L1145.38 1486.45  Z" fill="#009af9" fill-rule="evenodd" fill-opacity="1"/>
<polyline clip-path="url(#clip232)" style="stroke:#000000; stroke-linecap:round; stroke-linejoin:round; stroke-width:4; stroke-opacity:1; fill:none" points="1145.38,1486.45 1145.38,1486.45 1159.15,1486.45 1145.38,1486.45 "/>
<path clip-path="url(#clip232)" d="M1159.15 1486.45 L1159.15 1486.45 L1172.91 1486.45 L1172.91 1486.45 L1159.15 1486.45 L1159.15 1486.45  Z" fill="#009af9" fill-rule="evenodd" fill-opacity="1"/>
<polyline clip-path="url(#clip232)" style="stroke:#000000; stroke-linecap:round; stroke-linejoin:round; stroke-width:4; stroke-opacity:1; fill:none" points="1159.15,1486.45 1159.15,1486.45 1172.91,1486.45 1159.15,1486.45 "/>
<path clip-path="url(#clip232)" d="M1172.91 1486.45 L1172.91 1486.45 L1186.68 1486.45 L1186.68 1486.45 L1172.91 1486.45 L1172.91 1486.45  Z" fill="#009af9" fill-rule="evenodd" fill-opacity="1"/>
<polyline clip-path="url(#clip232)" style="stroke:#000000; stroke-linecap:round; stroke-linejoin:round; stroke-width:4; stroke-opacity:1; fill:none" points="1172.91,1486.45 1172.91,1486.45 1186.68,1486.45 1172.91,1486.45 "/>
<path clip-path="url(#clip232)" d="M1186.68 1486.45 L1186.68 1486.45 L1200.44 1486.45 L1200.44 1486.45 L1186.68 1486.45 L1186.68 1486.45  Z" fill="#009af9" fill-rule="evenodd" fill-opacity="1"/>
<polyline clip-path="url(#clip232)" style="stroke:#000000; stroke-linecap:round; stroke-linejoin:round; stroke-width:4; stroke-opacity:1; fill:none" points="1186.68,1486.45 1186.68,1486.45 1200.44,1486.45 1186.68,1486.45 "/>
<path clip-path="url(#clip232)" d="M1200.44 1486.45 L1200.44 1486.45 L1214.21 1486.45 L1214.21 1486.45 L1200.44 1486.45 L1200.44 1486.45  Z" fill="#009af9" fill-rule="evenodd" fill-opacity="1"/>
<polyline clip-path="url(#clip232)" style="stroke:#000000; stroke-linecap:round; stroke-linejoin:round; stroke-width:4; stroke-opacity:1; fill:none" points="1200.44,1486.45 1200.44,1486.45 1214.21,1486.45 1200.44,1486.45 "/>
<path clip-path="url(#clip232)" d="M1214.21 1486.45 L1214.21 1486.45 L1227.97 1486.45 L1227.97 1486.45 L1214.21 1486.45 L1214.21 1486.45  Z" fill="#009af9" fill-rule="evenodd" fill-opacity="1"/>
<polyline clip-path="url(#clip232)" style="stroke:#000000; stroke-linecap:round; stroke-linejoin:round; stroke-width:4; stroke-opacity:1; fill:none" points="1214.21,1486.45 1214.21,1486.45 1227.97,1486.45 1214.21,1486.45 "/>
<path clip-path="url(#clip232)" d="M1227.97 1486.45 L1227.97 1486.45 L1241.74 1486.45 L1241.74 1486.45 L1227.97 1486.45 L1227.97 1486.45  Z" fill="#009af9" fill-rule="evenodd" fill-opacity="1"/>
<polyline clip-path="url(#clip232)" style="stroke:#000000; stroke-linecap:round; stroke-linejoin:round; stroke-width:4; stroke-opacity:1; fill:none" points="1227.97,1486.45 1227.97,1486.45 1241.74,1486.45 1227.97,1486.45 "/>
<path clip-path="url(#clip232)" d="M1241.74 1486.45 L1241.74 1486.45 L1255.5 1486.45 L1255.5 1486.45 L1241.74 1486.45 L1241.74 1486.45  Z" fill="#009af9" fill-rule="evenodd" fill-opacity="1"/>
<polyline clip-path="url(#clip232)" style="stroke:#000000; stroke-linecap:round; stroke-linejoin:round; stroke-width:4; stroke-opacity:1; fill:none" points="1241.74,1486.45 1241.74,1486.45 1255.5,1486.45 1241.74,1486.45 "/>
<path clip-path="url(#clip232)" d="M1255.5 1414.49 L1255.5 1486.45 L1269.27 1486.45 L1269.27 1414.49 L1255.5 1414.49 L1255.5 1414.49  Z" fill="#009af9" fill-rule="evenodd" fill-opacity="1"/>
<polyline clip-path="url(#clip232)" style="stroke:#000000; stroke-linecap:round; stroke-linejoin:round; stroke-width:4; stroke-opacity:1; fill:none" points="1255.5,1414.49 1255.5,1486.45 1269.27,1486.45 1269.27,1414.49 1255.5,1414.49 "/>
<path clip-path="url(#clip232)" d="M1269.27 1486.45 L1269.27 1486.45 L1283.03 1486.45 L1283.03 1486.45 L1269.27 1486.45 L1269.27 1486.45  Z" fill="#009af9" fill-rule="evenodd" fill-opacity="1"/>
<polyline clip-path="url(#clip232)" style="stroke:#000000; stroke-linecap:round; stroke-linejoin:round; stroke-width:4; stroke-opacity:1; fill:none" points="1269.27,1486.45 1269.27,1486.45 1283.03,1486.45 1269.27,1486.45 "/>
<path clip-path="url(#clip232)" d="M1283.03 1486.45 L1283.03 1486.45 L1296.8 1486.45 L1296.8 1486.45 L1283.03 1486.45 L1283.03 1486.45  Z" fill="#009af9" fill-rule="evenodd" fill-opacity="1"/>
<polyline clip-path="url(#clip232)" style="stroke:#000000; stroke-linecap:round; stroke-linejoin:round; stroke-width:4; stroke-opacity:1; fill:none" points="1283.03,1486.45 1283.03,1486.45 1296.8,1486.45 1283.03,1486.45 "/>
<path clip-path="url(#clip232)" d="M1296.8 1486.45 L1296.8 1486.45 L1310.56 1486.45 L1310.56 1486.45 L1296.8 1486.45 L1296.8 1486.45  Z" fill="#009af9" fill-rule="evenodd" fill-opacity="1"/>
<polyline clip-path="url(#clip232)" style="stroke:#000000; stroke-linecap:round; stroke-linejoin:round; stroke-width:4; stroke-opacity:1; fill:none" points="1296.8,1486.45 1296.8,1486.45 1310.56,1486.45 1296.8,1486.45 "/>
<path clip-path="url(#clip232)" d="M1310.56 1486.45 L1310.56 1486.45 L1324.33 1486.45 L1324.33 1486.45 L1310.56 1486.45 L1310.56 1486.45  Z" fill="#009af9" fill-rule="evenodd" fill-opacity="1"/>
<polyline clip-path="url(#clip232)" style="stroke:#000000; stroke-linecap:round; stroke-linejoin:round; stroke-width:4; stroke-opacity:1; fill:none" points="1310.56,1486.45 1310.56,1486.45 1324.33,1486.45 1310.56,1486.45 "/>
<path clip-path="url(#clip232)" d="M1324.33 1457.66 L1324.33 1486.45 L1338.09 1486.45 L1338.09 1457.66 L1324.33 1457.66 L1324.33 1457.66  Z" fill="#009af9" fill-rule="evenodd" fill-opacity="1"/>
<polyline clip-path="url(#clip232)" style="stroke:#000000; stroke-linecap:round; stroke-linejoin:round; stroke-width:4; stroke-opacity:1; fill:none" points="1324.33,1457.66 1324.33,1486.45 1338.09,1486.45 1338.09,1457.66 1324.33,1457.66 "/>
<path clip-path="url(#clip232)" d="M1338.09 1486.45 L1338.09 1486.45 L1351.86 1486.45 L1351.86 1486.45 L1338.09 1486.45 L1338.09 1486.45  Z" fill="#009af9" fill-rule="evenodd" fill-opacity="1"/>
<polyline clip-path="url(#clip232)" style="stroke:#000000; stroke-linecap:round; stroke-linejoin:round; stroke-width:4; stroke-opacity:1; fill:none" points="1338.09,1486.45 1338.09,1486.45 1351.86,1486.45 1338.09,1486.45 "/>
<path clip-path="url(#clip232)" d="M1351.86 1486.45 L1351.86 1486.45 L1365.62 1486.45 L1365.62 1486.45 L1351.86 1486.45 L1351.86 1486.45  Z" fill="#009af9" fill-rule="evenodd" fill-opacity="1"/>
<polyline clip-path="url(#clip232)" style="stroke:#000000; stroke-linecap:round; stroke-linejoin:round; stroke-width:4; stroke-opacity:1; fill:none" points="1351.86,1486.45 1351.86,1486.45 1365.62,1486.45 1351.86,1486.45 "/>
<path clip-path="url(#clip232)" d="M1365.62 1486.45 L1365.62 1486.45 L1379.39 1486.45 L1379.39 1486.45 L1365.62 1486.45 L1365.62 1486.45  Z" fill="#009af9" fill-rule="evenodd" fill-opacity="1"/>
<polyline clip-path="url(#clip232)" style="stroke:#000000; stroke-linecap:round; stroke-linejoin:round; stroke-width:4; stroke-opacity:1; fill:none" points="1365.62,1486.45 1365.62,1486.45 1379.39,1486.45 1365.62,1486.45 "/>
<path clip-path="url(#clip232)" d="M1379.39 1486.45 L1379.39 1486.45 L1393.15 1486.45 L1393.15 1486.45 L1379.39 1486.45 L1379.39 1486.45  Z" fill="#009af9" fill-rule="evenodd" fill-opacity="1"/>
<polyline clip-path="url(#clip232)" style="stroke:#000000; stroke-linecap:round; stroke-linejoin:round; stroke-width:4; stroke-opacity:1; fill:none" points="1379.39,1486.45 1379.39,1486.45 1393.15,1486.45 1379.39,1486.45 "/>
<path clip-path="url(#clip232)" d="M1393.15 1486.45 L1393.15 1486.45 L1406.92 1486.45 L1406.92 1486.45 L1393.15 1486.45 L1393.15 1486.45  Z" fill="#009af9" fill-rule="evenodd" fill-opacity="1"/>
<polyline clip-path="url(#clip232)" style="stroke:#000000; stroke-linecap:round; stroke-linejoin:round; stroke-width:4; stroke-opacity:1; fill:none" points="1393.15,1486.45 1393.15,1486.45 1406.92,1486.45 1393.15,1486.45 "/>
<path clip-path="url(#clip232)" d="M1406.92 1486.45 L1406.92 1486.45 L1420.68 1486.45 L1420.68 1486.45 L1406.92 1486.45 L1406.92 1486.45  Z" fill="#009af9" fill-rule="evenodd" fill-opacity="1"/>
<polyline clip-path="url(#clip232)" style="stroke:#000000; stroke-linecap:round; stroke-linejoin:round; stroke-width:4; stroke-opacity:1; fill:none" points="1406.92,1486.45 1406.92,1486.45 1420.68,1486.45 1406.92,1486.45 "/>
<path clip-path="url(#clip232)" d="M1420.68 1486.45 L1420.68 1486.45 L1434.45 1486.45 L1434.45 1486.45 L1420.68 1486.45 L1420.68 1486.45  Z" fill="#009af9" fill-rule="evenodd" fill-opacity="1"/>
<polyline clip-path="url(#clip232)" style="stroke:#000000; stroke-linecap:round; stroke-linejoin:round; stroke-width:4; stroke-opacity:1; fill:none" points="1420.68,1486.45 1420.68,1486.45 1434.45,1486.45 1420.68,1486.45 "/>
<path clip-path="url(#clip232)" d="M1434.45 1486.45 L1434.45 1486.45 L1448.21 1486.45 L1448.21 1486.45 L1434.45 1486.45 L1434.45 1486.45  Z" fill="#009af9" fill-rule="evenodd" fill-opacity="1"/>
<polyline clip-path="url(#clip232)" style="stroke:#000000; stroke-linecap:round; stroke-linejoin:round; stroke-width:4; stroke-opacity:1; fill:none" points="1434.45,1486.45 1434.45,1486.45 1448.21,1486.45 1434.45,1486.45 "/>
<path clip-path="url(#clip232)" d="M1448.21 1486.45 L1448.21 1486.45 L1461.98 1486.45 L1461.98 1486.45 L1448.21 1486.45 L1448.21 1486.45  Z" fill="#009af9" fill-rule="evenodd" fill-opacity="1"/>
<polyline clip-path="url(#clip232)" style="stroke:#000000; stroke-linecap:round; stroke-linejoin:round; stroke-width:4; stroke-opacity:1; fill:none" points="1448.21,1486.45 1448.21,1486.45 1461.98,1486.45 1448.21,1486.45 "/>
<path clip-path="url(#clip232)" d="M1461.98 1483.57 L1461.98 1486.45 L1475.74 1486.45 L1475.74 1483.57 L1461.98 1483.57 L1461.98 1483.57  Z" fill="#009af9" fill-rule="evenodd" fill-opacity="1"/>
<polyline clip-path="url(#clip232)" style="stroke:#000000; stroke-linecap:round; stroke-linejoin:round; stroke-width:4; stroke-opacity:1; fill:none" points="1461.98,1483.57 1461.98,1486.45 1475.74,1486.45 1475.74,1483.57 1461.98,1483.57 "/>
<path clip-path="url(#clip232)" d="M1475.74 1486.45 L1475.74 1486.45 L1489.51 1486.45 L1489.51 1486.45 L1475.74 1486.45 L1475.74 1486.45  Z" fill="#009af9" fill-rule="evenodd" fill-opacity="1"/>
<polyline clip-path="url(#clip232)" style="stroke:#000000; stroke-linecap:round; stroke-linejoin:round; stroke-width:4; stroke-opacity:1; fill:none" points="1475.74,1486.45 1475.74,1486.45 1489.51,1486.45 1475.74,1486.45 "/>
<path clip-path="url(#clip232)" d="M1489.51 1486.45 L1489.51 1486.45 L1503.27 1486.45 L1503.27 1486.45 L1489.51 1486.45 L1489.51 1486.45  Z" fill="#009af9" fill-rule="evenodd" fill-opacity="1"/>
<polyline clip-path="url(#clip232)" style="stroke:#000000; stroke-linecap:round; stroke-linejoin:round; stroke-width:4; stroke-opacity:1; fill:none" points="1489.51,1486.45 1489.51,1486.45 1503.27,1486.45 1489.51,1486.45 "/>
<path clip-path="url(#clip232)" d="M1503.27 1486.45 L1503.27 1486.45 L1517.04 1486.45 L1517.04 1486.45 L1503.27 1486.45 L1503.27 1486.45  Z" fill="#009af9" fill-rule="evenodd" fill-opacity="1"/>
<polyline clip-path="url(#clip232)" style="stroke:#000000; stroke-linecap:round; stroke-linejoin:round; stroke-width:4; stroke-opacity:1; fill:none" points="1503.27,1486.45 1503.27,1486.45 1517.04,1486.45 1503.27,1486.45 "/>
<path clip-path="url(#clip232)" d="M1517.04 1486.45 L1517.04 1486.45 L1530.8 1486.45 L1530.8 1486.45 L1517.04 1486.45 L1517.04 1486.45  Z" fill="#009af9" fill-rule="evenodd" fill-opacity="1"/>
<polyline clip-path="url(#clip232)" style="stroke:#000000; stroke-linecap:round; stroke-linejoin:round; stroke-width:4; stroke-opacity:1; fill:none" points="1517.04,1486.45 1517.04,1486.45 1530.8,1486.45 1517.04,1486.45 "/>
<path clip-path="url(#clip232)" d="M1530.8 1486.45 L1530.8 1486.45 L1544.57 1486.45 L1544.57 1486.45 L1530.8 1486.45 L1530.8 1486.45  Z" fill="#009af9" fill-rule="evenodd" fill-opacity="1"/>
<polyline clip-path="url(#clip232)" style="stroke:#000000; stroke-linecap:round; stroke-linejoin:round; stroke-width:4; stroke-opacity:1; fill:none" points="1530.8,1486.45 1530.8,1486.45 1544.57,1486.45 1530.8,1486.45 "/>
<path clip-path="url(#clip232)" d="M1544.57 1486.45 L1544.57 1486.45 L1558.33 1486.45 L1558.33 1486.45 L1544.57 1486.45 L1544.57 1486.45  Z" fill="#009af9" fill-rule="evenodd" fill-opacity="1"/>
<polyline clip-path="url(#clip232)" style="stroke:#000000; stroke-linecap:round; stroke-linejoin:round; stroke-width:4; stroke-opacity:1; fill:none" points="1544.57,1486.45 1544.57,1486.45 1558.33,1486.45 1544.57,1486.45 "/>
<path clip-path="url(#clip232)" d="M1558.33 1486.45 L1558.33 1486.45 L1572.1 1486.45 L1572.1 1486.45 L1558.33 1486.45 L1558.33 1486.45  Z" fill="#009af9" fill-rule="evenodd" fill-opacity="1"/>
<polyline clip-path="url(#clip232)" style="stroke:#000000; stroke-linecap:round; stroke-linejoin:round; stroke-width:4; stroke-opacity:1; fill:none" points="1558.33,1486.45 1558.33,1486.45 1572.1,1486.45 1558.33,1486.45 "/>
<path clip-path="url(#clip232)" d="M1572.1 1486.45 L1572.1 1486.45 L1585.86 1486.45 L1585.86 1486.45 L1572.1 1486.45 L1572.1 1486.45  Z" fill="#009af9" fill-rule="evenodd" fill-opacity="1"/>
<polyline clip-path="url(#clip232)" style="stroke:#000000; stroke-linecap:round; stroke-linejoin:round; stroke-width:4; stroke-opacity:1; fill:none" points="1572.1,1486.45 1572.1,1486.45 1585.86,1486.45 1572.1,1486.45 "/>
<path clip-path="url(#clip232)" d="M1585.86 1486.45 L1585.86 1486.45 L1599.63 1486.45 L1599.63 1486.45 L1585.86 1486.45 L1585.86 1486.45  Z" fill="#009af9" fill-rule="evenodd" fill-opacity="1"/>
<polyline clip-path="url(#clip232)" style="stroke:#000000; stroke-linecap:round; stroke-linejoin:round; stroke-width:4; stroke-opacity:1; fill:none" points="1585.86,1486.45 1585.86,1486.45 1599.63,1486.45 1585.86,1486.45 "/>
<path clip-path="url(#clip232)" d="M1599.63 1486.45 L1599.63 1486.45 L1613.39 1486.45 L1613.39 1486.45 L1599.63 1486.45 L1599.63 1486.45  Z" fill="#009af9" fill-rule="evenodd" fill-opacity="1"/>
<polyline clip-path="url(#clip232)" style="stroke:#000000; stroke-linecap:round; stroke-linejoin:round; stroke-width:4; stroke-opacity:1; fill:none" points="1599.63,1486.45 1599.63,1486.45 1613.39,1486.45 1599.63,1486.45 "/>
<path clip-path="url(#clip232)" d="M1613.39 1486.45 L1613.39 1486.45 L1627.16 1486.45 L1627.16 1486.45 L1613.39 1486.45 L1613.39 1486.45  Z" fill="#009af9" fill-rule="evenodd" fill-opacity="1"/>
<polyline clip-path="url(#clip232)" style="stroke:#000000; stroke-linecap:round; stroke-linejoin:round; stroke-width:4; stroke-opacity:1; fill:none" points="1613.39,1486.45 1613.39,1486.45 1627.16,1486.45 1613.39,1486.45 "/>
<path clip-path="url(#clip232)" d="M1627.16 1486.45 L1627.16 1486.45 L1640.92 1486.45 L1640.92 1486.45 L1627.16 1486.45 L1627.16 1486.45  Z" fill="#009af9" fill-rule="evenodd" fill-opacity="1"/>
<polyline clip-path="url(#clip232)" style="stroke:#000000; stroke-linecap:round; stroke-linejoin:round; stroke-width:4; stroke-opacity:1; fill:none" points="1627.16,1486.45 1627.16,1486.45 1640.92,1486.45 1627.16,1486.45 "/>
<path clip-path="url(#clip232)" d="M1640.92 1486.45 L1640.92 1486.45 L1654.69 1486.45 L1654.69 1486.45 L1640.92 1486.45 L1640.92 1486.45  Z" fill="#009af9" fill-rule="evenodd" fill-opacity="1"/>
<polyline clip-path="url(#clip232)" style="stroke:#000000; stroke-linecap:round; stroke-linejoin:round; stroke-width:4; stroke-opacity:1; fill:none" points="1640.92,1486.45 1640.92,1486.45 1654.69,1486.45 1640.92,1486.45 "/>
<path clip-path="url(#clip232)" d="M1654.69 1486.45 L1654.69 1486.45 L1668.45 1486.45 L1668.45 1486.45 L1654.69 1486.45 L1654.69 1486.45  Z" fill="#009af9" fill-rule="evenodd" fill-opacity="1"/>
<polyline clip-path="url(#clip232)" style="stroke:#000000; stroke-linecap:round; stroke-linejoin:round; stroke-width:4; stroke-opacity:1; fill:none" points="1654.69,1486.45 1654.69,1486.45 1668.45,1486.45 1654.69,1486.45 "/>
<path clip-path="url(#clip232)" d="M1668.45 1486.45 L1668.45 1486.45 L1682.22 1486.45 L1682.22 1486.45 L1668.45 1486.45 L1668.45 1486.45  Z" fill="#009af9" fill-rule="evenodd" fill-opacity="1"/>
<polyline clip-path="url(#clip232)" style="stroke:#000000; stroke-linecap:round; stroke-linejoin:round; stroke-width:4; stroke-opacity:1; fill:none" points="1668.45,1486.45 1668.45,1486.45 1682.22,1486.45 1668.45,1486.45 "/>
<path clip-path="url(#clip232)" d="M1682.22 1486.45 L1682.22 1486.45 L1695.98 1486.45 L1695.98 1486.45 L1682.22 1486.45 L1682.22 1486.45  Z" fill="#009af9" fill-rule="evenodd" fill-opacity="1"/>
<polyline clip-path="url(#clip232)" style="stroke:#000000; stroke-linecap:round; stroke-linejoin:round; stroke-width:4; stroke-opacity:1; fill:none" points="1682.22,1486.45 1682.22,1486.45 1695.98,1486.45 1682.22,1486.45 "/>
<path clip-path="url(#clip232)" d="M1695.98 1486.45 L1695.98 1486.45 L1709.74 1486.45 L1709.74 1486.45 L1695.98 1486.45 L1695.98 1486.45  Z" fill="#009af9" fill-rule="evenodd" fill-opacity="1"/>
<polyline clip-path="url(#clip232)" style="stroke:#000000; stroke-linecap:round; stroke-linejoin:round; stroke-width:4; stroke-opacity:1; fill:none" points="1695.98,1486.45 1695.98,1486.45 1709.74,1486.45 1695.98,1486.45 "/>
<path clip-path="url(#clip232)" d="M1709.74 1486.45 L1709.74 1486.45 L1723.51 1486.45 L1723.51 1486.45 L1709.74 1486.45 L1709.74 1486.45  Z" fill="#009af9" fill-rule="evenodd" fill-opacity="1"/>
<polyline clip-path="url(#clip232)" style="stroke:#000000; stroke-linecap:round; stroke-linejoin:round; stroke-width:4; stroke-opacity:1; fill:none" points="1709.74,1486.45 1709.74,1486.45 1723.51,1486.45 1709.74,1486.45 "/>
<path clip-path="url(#clip232)" d="M1723.51 1486.45 L1723.51 1486.45 L1737.27 1486.45 L1737.27 1486.45 L1723.51 1486.45 L1723.51 1486.45  Z" fill="#009af9" fill-rule="evenodd" fill-opacity="1"/>
<polyline clip-path="url(#clip232)" style="stroke:#000000; stroke-linecap:round; stroke-linejoin:round; stroke-width:4; stroke-opacity:1; fill:none" points="1723.51,1486.45 1723.51,1486.45 1737.27,1486.45 1723.51,1486.45 "/>
<path clip-path="url(#clip232)" d="M1737.27 1474.93 L1737.27 1486.45 L1751.04 1486.45 L1751.04 1474.93 L1737.27 1474.93 L1737.27 1474.93  Z" fill="#009af9" fill-rule="evenodd" fill-opacity="1"/>
<polyline clip-path="url(#clip232)" style="stroke:#000000; stroke-linecap:round; stroke-linejoin:round; stroke-width:4; stroke-opacity:1; fill:none" points="1737.27,1474.93 1737.27,1486.45 1751.04,1486.45 1751.04,1474.93 1737.27,1474.93 "/>
<path clip-path="url(#clip232)" d="M1751.04 1486.45 L1751.04 1486.45 L1764.8 1486.45 L1764.8 1486.45 L1751.04 1486.45 L1751.04 1486.45  Z" fill="#009af9" fill-rule="evenodd" fill-opacity="1"/>
<polyline clip-path="url(#clip232)" style="stroke:#000000; stroke-linecap:round; stroke-linejoin:round; stroke-width:4; stroke-opacity:1; fill:none" points="1751.04,1486.45 1751.04,1486.45 1764.8,1486.45 1751.04,1486.45 "/>
<path clip-path="url(#clip232)" d="M1764.8 1486.45 L1764.8 1486.45 L1778.57 1486.45 L1778.57 1486.45 L1764.8 1486.45 L1764.8 1486.45  Z" fill="#009af9" fill-rule="evenodd" fill-opacity="1"/>
<polyline clip-path="url(#clip232)" style="stroke:#000000; stroke-linecap:round; stroke-linejoin:round; stroke-width:4; stroke-opacity:1; fill:none" points="1764.8,1486.45 1764.8,1486.45 1778.57,1486.45 1764.8,1486.45 "/>
<path clip-path="url(#clip232)" d="M1778.57 1486.45 L1778.57 1486.45 L1792.33 1486.45 L1792.33 1486.45 L1778.57 1486.45 L1778.57 1486.45  Z" fill="#009af9" fill-rule="evenodd" fill-opacity="1"/>
<polyline clip-path="url(#clip232)" style="stroke:#000000; stroke-linecap:round; stroke-linejoin:round; stroke-width:4; stroke-opacity:1; fill:none" points="1778.57,1486.45 1778.57,1486.45 1792.33,1486.45 1778.57,1486.45 "/>
<path clip-path="url(#clip232)" d="M1792.33 1486.45 L1792.33 1486.45 L1806.1 1486.45 L1806.1 1486.45 L1792.33 1486.45 L1792.33 1486.45  Z" fill="#009af9" fill-rule="evenodd" fill-opacity="1"/>
<polyline clip-path="url(#clip232)" style="stroke:#000000; stroke-linecap:round; stroke-linejoin:round; stroke-width:4; stroke-opacity:1; fill:none" points="1792.33,1486.45 1792.33,1486.45 1806.1,1486.45 1792.33,1486.45 "/>
<path clip-path="url(#clip232)" d="M1806.1 1480.69 L1806.1 1486.45 L1819.86 1486.45 L1819.86 1480.69 L1806.1 1480.69 L1806.1 1480.69  Z" fill="#009af9" fill-rule="evenodd" fill-opacity="1"/>
<polyline clip-path="url(#clip232)" style="stroke:#000000; stroke-linecap:round; stroke-linejoin:round; stroke-width:4; stroke-opacity:1; fill:none" points="1806.1,1480.69 1806.1,1486.45 1819.86,1486.45 1819.86,1480.69 1806.1,1480.69 "/>
<path clip-path="url(#clip232)" d="M1819.86 1486.45 L1819.86 1486.45 L1833.63 1486.45 L1833.63 1486.45 L1819.86 1486.45 L1819.86 1486.45  Z" fill="#009af9" fill-rule="evenodd" fill-opacity="1"/>
<polyline clip-path="url(#clip232)" style="stroke:#000000; stroke-linecap:round; stroke-linejoin:round; stroke-width:4; stroke-opacity:1; fill:none" points="1819.86,1486.45 1819.86,1486.45 1833.63,1486.45 1819.86,1486.45 "/>
<path clip-path="url(#clip232)" d="M1833.63 1486.45 L1833.63 1486.45 L1847.39 1486.45 L1847.39 1486.45 L1833.63 1486.45 L1833.63 1486.45  Z" fill="#009af9" fill-rule="evenodd" fill-opacity="1"/>
<polyline clip-path="url(#clip232)" style="stroke:#000000; stroke-linecap:round; stroke-linejoin:round; stroke-width:4; stroke-opacity:1; fill:none" points="1833.63,1486.45 1833.63,1486.45 1847.39,1486.45 1833.63,1486.45 "/>
<path clip-path="url(#clip232)" d="M1847.39 1486.45 L1847.39 1486.45 L1861.16 1486.45 L1861.16 1486.45 L1847.39 1486.45 L1847.39 1486.45  Z" fill="#009af9" fill-rule="evenodd" fill-opacity="1"/>
<polyline clip-path="url(#clip232)" style="stroke:#000000; stroke-linecap:round; stroke-linejoin:round; stroke-width:4; stroke-opacity:1; fill:none" points="1847.39,1486.45 1847.39,1486.45 1861.16,1486.45 1847.39,1486.45 "/>
<path clip-path="url(#clip232)" d="M1861.16 1486.45 L1861.16 1486.45 L1874.92 1486.45 L1874.92 1486.45 L1861.16 1486.45 L1861.16 1486.45  Z" fill="#009af9" fill-rule="evenodd" fill-opacity="1"/>
<polyline clip-path="url(#clip232)" style="stroke:#000000; stroke-linecap:round; stroke-linejoin:round; stroke-width:4; stroke-opacity:1; fill:none" points="1861.16,1486.45 1861.16,1486.45 1874.92,1486.45 1861.16,1486.45 "/>
<path clip-path="url(#clip232)" d="M1874.92 1486.45 L1874.92 1486.45 L1888.69 1486.45 L1888.69 1486.45 L1874.92 1486.45 L1874.92 1486.45  Z" fill="#009af9" fill-rule="evenodd" fill-opacity="1"/>
<polyline clip-path="url(#clip232)" style="stroke:#000000; stroke-linecap:round; stroke-linejoin:round; stroke-width:4; stroke-opacity:1; fill:none" points="1874.92,1486.45 1874.92,1486.45 1888.69,1486.45 1874.92,1486.45 "/>
<path clip-path="url(#clip232)" d="M1888.69 1486.45 L1888.69 1486.45 L1902.45 1486.45 L1902.45 1486.45 L1888.69 1486.45 L1888.69 1486.45  Z" fill="#009af9" fill-rule="evenodd" fill-opacity="1"/>
<polyline clip-path="url(#clip232)" style="stroke:#000000; stroke-linecap:round; stroke-linejoin:round; stroke-width:4; stroke-opacity:1; fill:none" points="1888.69,1486.45 1888.69,1486.45 1902.45,1486.45 1888.69,1486.45 "/>
<path clip-path="url(#clip232)" d="M1902.45 1486.45 L1902.45 1486.45 L1916.22 1486.45 L1916.22 1486.45 L1902.45 1486.45 L1902.45 1486.45  Z" fill="#009af9" fill-rule="evenodd" fill-opacity="1"/>
<polyline clip-path="url(#clip232)" style="stroke:#000000; stroke-linecap:round; stroke-linejoin:round; stroke-width:4; stroke-opacity:1; fill:none" points="1902.45,1486.45 1902.45,1486.45 1916.22,1486.45 1902.45,1486.45 "/>
<path clip-path="url(#clip232)" d="M1916.22 1486.45 L1916.22 1486.45 L1929.98 1486.45 L1929.98 1486.45 L1916.22 1486.45 L1916.22 1486.45  Z" fill="#009af9" fill-rule="evenodd" fill-opacity="1"/>
<polyline clip-path="url(#clip232)" style="stroke:#000000; stroke-linecap:round; stroke-linejoin:round; stroke-width:4; stroke-opacity:1; fill:none" points="1916.22,1486.45 1916.22,1486.45 1929.98,1486.45 1916.22,1486.45 "/>
<path clip-path="url(#clip232)" d="M1929.98 1486.45 L1929.98 1486.45 L1943.75 1486.45 L1943.75 1486.45 L1929.98 1486.45 L1929.98 1486.45  Z" fill="#009af9" fill-rule="evenodd" fill-opacity="1"/>
<polyline clip-path="url(#clip232)" style="stroke:#000000; stroke-linecap:round; stroke-linejoin:round; stroke-width:4; stroke-opacity:1; fill:none" points="1929.98,1486.45 1929.98,1486.45 1943.75,1486.45 1929.98,1486.45 "/>
<path clip-path="url(#clip232)" d="M1943.75 1486.45 L1943.75 1486.45 L1957.51 1486.45 L1957.51 1486.45 L1943.75 1486.45 L1943.75 1486.45  Z" fill="#009af9" fill-rule="evenodd" fill-opacity="1"/>
<polyline clip-path="url(#clip232)" style="stroke:#000000; stroke-linecap:round; stroke-linejoin:round; stroke-width:4; stroke-opacity:1; fill:none" points="1943.75,1486.45 1943.75,1486.45 1957.51,1486.45 1943.75,1486.45 "/>
<path clip-path="url(#clip232)" d="M1957.51 1486.45 L1957.51 1486.45 L1971.28 1486.45 L1971.28 1486.45 L1957.51 1486.45 L1957.51 1486.45  Z" fill="#009af9" fill-rule="evenodd" fill-opacity="1"/>
<polyline clip-path="url(#clip232)" style="stroke:#000000; stroke-linecap:round; stroke-linejoin:round; stroke-width:4; stroke-opacity:1; fill:none" points="1957.51,1486.45 1957.51,1486.45 1971.28,1486.45 1957.51,1486.45 "/>
<path clip-path="url(#clip232)" d="M1971.28 1486.45 L1971.28 1486.45 L1985.04 1486.45 L1985.04 1486.45 L1971.28 1486.45 L1971.28 1486.45  Z" fill="#009af9" fill-rule="evenodd" fill-opacity="1"/>
<polyline clip-path="url(#clip232)" style="stroke:#000000; stroke-linecap:round; stroke-linejoin:round; stroke-width:4; stroke-opacity:1; fill:none" points="1971.28,1486.45 1971.28,1486.45 1985.04,1486.45 1971.28,1486.45 "/>
<path clip-path="url(#clip232)" d="M1985.04 1486.45 L1985.04 1486.45 L1998.81 1486.45 L1998.81 1486.45 L1985.04 1486.45 L1985.04 1486.45  Z" fill="#009af9" fill-rule="evenodd" fill-opacity="1"/>
<polyline clip-path="url(#clip232)" style="stroke:#000000; stroke-linecap:round; stroke-linejoin:round; stroke-width:4; stroke-opacity:1; fill:none" points="1985.04,1486.45 1985.04,1486.45 1998.81,1486.45 1985.04,1486.45 "/>
<path clip-path="url(#clip232)" d="M1998.81 1486.45 L1998.81 1486.45 L2012.57 1486.45 L2012.57 1486.45 L1998.81 1486.45 L1998.81 1486.45  Z" fill="#009af9" fill-rule="evenodd" fill-opacity="1"/>
<polyline clip-path="url(#clip232)" style="stroke:#000000; stroke-linecap:round; stroke-linejoin:round; stroke-width:4; stroke-opacity:1; fill:none" points="1998.81,1486.45 1998.81,1486.45 2012.57,1486.45 1998.81,1486.45 "/>
<path clip-path="url(#clip232)" d="M2012.57 1486.45 L2012.57 1486.45 L2026.34 1486.45 L2026.34 1486.45 L2012.57 1486.45 L2012.57 1486.45  Z" fill="#009af9" fill-rule="evenodd" fill-opacity="1"/>
<polyline clip-path="url(#clip232)" style="stroke:#000000; stroke-linecap:round; stroke-linejoin:round; stroke-width:4; stroke-opacity:1; fill:none" points="2012.57,1486.45 2012.57,1486.45 2026.34,1486.45 2012.57,1486.45 "/>
<path clip-path="url(#clip232)" d="M2026.34 1486.45 L2026.34 1486.45 L2040.1 1486.45 L2040.1 1486.45 L2026.34 1486.45 L2026.34 1486.45  Z" fill="#009af9" fill-rule="evenodd" fill-opacity="1"/>
<polyline clip-path="url(#clip232)" style="stroke:#000000; stroke-linecap:round; stroke-linejoin:round; stroke-width:4; stroke-opacity:1; fill:none" points="2026.34,1486.45 2026.34,1486.45 2040.1,1486.45 2026.34,1486.45 "/>
<path clip-path="url(#clip232)" d="M2040.1 1486.45 L2040.1 1486.45 L2053.87 1486.45 L2053.87 1486.45 L2040.1 1486.45 L2040.1 1486.45  Z" fill="#009af9" fill-rule="evenodd" fill-opacity="1"/>
<polyline clip-path="url(#clip232)" style="stroke:#000000; stroke-linecap:round; stroke-linejoin:round; stroke-width:4; stroke-opacity:1; fill:none" points="2040.1,1486.45 2040.1,1486.45 2053.87,1486.45 2040.1,1486.45 "/>
<path clip-path="url(#clip232)" d="M2053.87 1486.45 L2053.87 1486.45 L2067.63 1486.45 L2067.63 1486.45 L2053.87 1486.45 L2053.87 1486.45  Z" fill="#009af9" fill-rule="evenodd" fill-opacity="1"/>
<polyline clip-path="url(#clip232)" style="stroke:#000000; stroke-linecap:round; stroke-linejoin:round; stroke-width:4; stroke-opacity:1; fill:none" points="2053.87,1486.45 2053.87,1486.45 2067.63,1486.45 2053.87,1486.45 "/>
<path clip-path="url(#clip232)" d="M2067.63 1486.45 L2067.63 1486.45 L2081.4 1486.45 L2081.4 1486.45 L2067.63 1486.45 L2067.63 1486.45  Z" fill="#009af9" fill-rule="evenodd" fill-opacity="1"/>
<polyline clip-path="url(#clip232)" style="stroke:#000000; stroke-linecap:round; stroke-linejoin:round; stroke-width:4; stroke-opacity:1; fill:none" points="2067.63,1486.45 2067.63,1486.45 2081.4,1486.45 2067.63,1486.45 "/>
<path clip-path="url(#clip232)" d="M2081.4 1486.45 L2081.4 1486.45 L2095.16 1486.45 L2095.16 1486.45 L2081.4 1486.45 L2081.4 1486.45  Z" fill="#009af9" fill-rule="evenodd" fill-opacity="1"/>
<polyline clip-path="url(#clip232)" style="stroke:#000000; stroke-linecap:round; stroke-linejoin:round; stroke-width:4; stroke-opacity:1; fill:none" points="2081.4,1486.45 2081.4,1486.45 2095.16,1486.45 2081.4,1486.45 "/>
<path clip-path="url(#clip232)" d="M2095.16 1486.45 L2095.16 1486.45 L2108.93 1486.45 L2108.93 1486.45 L2095.16 1486.45 L2095.16 1486.45  Z" fill="#009af9" fill-rule="evenodd" fill-opacity="1"/>
<polyline clip-path="url(#clip232)" style="stroke:#000000; stroke-linecap:round; stroke-linejoin:round; stroke-width:4; stroke-opacity:1; fill:none" points="2095.16,1486.45 2095.16,1486.45 2108.93,1486.45 2095.16,1486.45 "/>
<path clip-path="url(#clip232)" d="M2108.93 1486.45 L2108.93 1486.45 L2122.69 1486.45 L2122.69 1486.45 L2108.93 1486.45 L2108.93 1486.45  Z" fill="#009af9" fill-rule="evenodd" fill-opacity="1"/>
<polyline clip-path="url(#clip232)" style="stroke:#000000; stroke-linecap:round; stroke-linejoin:round; stroke-width:4; stroke-opacity:1; fill:none" points="2108.93,1486.45 2108.93,1486.45 2122.69,1486.45 2108.93,1486.45 "/>
<path clip-path="url(#clip232)" d="M2122.69 1486.45 L2122.69 1486.45 L2136.46 1486.45 L2136.46 1486.45 L2122.69 1486.45 L2122.69 1486.45  Z" fill="#009af9" fill-rule="evenodd" fill-opacity="1"/>
<polyline clip-path="url(#clip232)" style="stroke:#000000; stroke-linecap:round; stroke-linejoin:round; stroke-width:4; stroke-opacity:1; fill:none" points="2122.69,1486.45 2122.69,1486.45 2136.46,1486.45 2122.69,1486.45 "/>
<path clip-path="url(#clip232)" d="M2136.46 1486.45 L2136.46 1486.45 L2150.22 1486.45 L2150.22 1486.45 L2136.46 1486.45 L2136.46 1486.45  Z" fill="#009af9" fill-rule="evenodd" fill-opacity="1"/>
<polyline clip-path="url(#clip232)" style="stroke:#000000; stroke-linecap:round; stroke-linejoin:round; stroke-width:4; stroke-opacity:1; fill:none" points="2136.46,1486.45 2136.46,1486.45 2150.22,1486.45 2136.46,1486.45 "/>
<path clip-path="url(#clip232)" d="M2150.22 1486.45 L2150.22 1486.45 L2163.99 1486.45 L2163.99 1486.45 L2150.22 1486.45 L2150.22 1486.45  Z" fill="#009af9" fill-rule="evenodd" fill-opacity="1"/>
<polyline clip-path="url(#clip232)" style="stroke:#000000; stroke-linecap:round; stroke-linejoin:round; stroke-width:4; stroke-opacity:1; fill:none" points="2150.22,1486.45 2150.22,1486.45 2163.99,1486.45 2150.22,1486.45 "/>
<path clip-path="url(#clip232)" d="M2163.99 1486.45 L2163.99 1486.45 L2177.75 1486.45 L2177.75 1486.45 L2163.99 1486.45 L2163.99 1486.45  Z" fill="#009af9" fill-rule="evenodd" fill-opacity="1"/>
<polyline clip-path="url(#clip232)" style="stroke:#000000; stroke-linecap:round; stroke-linejoin:round; stroke-width:4; stroke-opacity:1; fill:none" points="2163.99,1486.45 2163.99,1486.45 2177.75,1486.45 2163.99,1486.45 "/>
<path clip-path="url(#clip232)" d="M2177.75 1486.45 L2177.75 1486.45 L2191.52 1486.45 L2191.52 1486.45 L2177.75 1486.45 L2177.75 1486.45  Z" fill="#009af9" fill-rule="evenodd" fill-opacity="1"/>
<polyline clip-path="url(#clip232)" style="stroke:#000000; stroke-linecap:round; stroke-linejoin:round; stroke-width:4; stroke-opacity:1; fill:none" points="2177.75,1486.45 2177.75,1486.45 2191.52,1486.45 2177.75,1486.45 "/>
<path clip-path="url(#clip232)" d="M2191.52 1486.45 L2191.52 1486.45 L2205.28 1486.45 L2205.28 1486.45 L2191.52 1486.45 L2191.52 1486.45  Z" fill="#009af9" fill-rule="evenodd" fill-opacity="1"/>
<polyline clip-path="url(#clip232)" style="stroke:#000000; stroke-linecap:round; stroke-linejoin:round; stroke-width:4; stroke-opacity:1; fill:none" points="2191.52,1486.45 2191.52,1486.45 2205.28,1486.45 2191.52,1486.45 "/>
<path clip-path="url(#clip232)" d="M2205.28 1486.45 L2205.28 1486.45 L2219.05 1486.45 L2219.05 1486.45 L2205.28 1486.45 L2205.28 1486.45  Z" fill="#009af9" fill-rule="evenodd" fill-opacity="1"/>
<polyline clip-path="url(#clip232)" style="stroke:#000000; stroke-linecap:round; stroke-linejoin:round; stroke-width:4; stroke-opacity:1; fill:none" points="2205.28,1486.45 2205.28,1486.45 2219.05,1486.45 2205.28,1486.45 "/>
<path clip-path="url(#clip232)" d="M2219.05 1483.57 L2219.05 1486.45 L2232.81 1486.45 L2232.81 1483.57 L2219.05 1483.57 L2219.05 1483.57  Z" fill="#009af9" fill-rule="evenodd" fill-opacity="1"/>
<polyline clip-path="url(#clip232)" style="stroke:#000000; stroke-linecap:round; stroke-linejoin:round; stroke-width:4; stroke-opacity:1; fill:none" points="2219.05,1483.57 2219.05,1486.45 2232.81,1486.45 2232.81,1483.57 2219.05,1483.57 "/>
<circle clip-path="url(#clip232)" style="fill:#009af9; stroke:none; fill-opacity:0" cx="298.842" cy="47.2441" r="2"/>
<circle clip-path="url(#clip232)" style="fill:#009af9; stroke:none; fill-opacity:0" cx="312.607" cy="1486.45" r="2"/>
<circle clip-path="url(#clip232)" style="fill:#009af9; stroke:none; fill-opacity:0" cx="326.372" cy="1486.45" r="2"/>
<circle clip-path="url(#clip232)" style="fill:#009af9; stroke:none; fill-opacity:0" cx="340.137" cy="1486.45" r="2"/>
<circle clip-path="url(#clip232)" style="fill:#009af9; stroke:none; fill-opacity:0" cx="353.902" cy="1486.45" r="2"/>
<circle clip-path="url(#clip232)" style="fill:#009af9; stroke:none; fill-opacity:0" cx="367.666" cy="694.886" r="2"/>
<circle clip-path="url(#clip232)" style="fill:#009af9; stroke:none; fill-opacity:0" cx="381.431" cy="1486.45" r="2"/>
<circle clip-path="url(#clip232)" style="fill:#009af9; stroke:none; fill-opacity:0" cx="395.196" cy="1486.45" r="2"/>
<circle clip-path="url(#clip232)" style="fill:#009af9; stroke:none; fill-opacity:0" cx="408.961" cy="1486.45" r="2"/>
<circle clip-path="url(#clip232)" style="fill:#009af9; stroke:none; fill-opacity:0" cx="422.726" cy="1486.45" r="2"/>
<circle clip-path="url(#clip232)" style="fill:#009af9; stroke:none; fill-opacity:0" cx="436.491" cy="1483.57" r="2"/>
<circle clip-path="url(#clip232)" style="fill:#009af9; stroke:none; fill-opacity:0" cx="450.256" cy="1486.45" r="2"/>
<circle clip-path="url(#clip232)" style="fill:#009af9; stroke:none; fill-opacity:0" cx="464.021" cy="1486.45" r="2"/>
<circle clip-path="url(#clip232)" style="fill:#009af9; stroke:none; fill-opacity:0" cx="477.786" cy="1486.45" r="2"/>
<circle clip-path="url(#clip232)" style="fill:#009af9; stroke:none; fill-opacity:0" cx="491.551" cy="1486.45" r="2"/>
<circle clip-path="url(#clip232)" style="fill:#009af9; stroke:none; fill-opacity:0" cx="505.316" cy="1451.91" r="2"/>
<circle clip-path="url(#clip232)" style="fill:#009af9; stroke:none; fill-opacity:0" cx="519.08" cy="1486.45" r="2"/>
<circle clip-path="url(#clip232)" style="fill:#009af9; stroke:none; fill-opacity:0" cx="532.845" cy="1486.45" r="2"/>
<circle clip-path="url(#clip232)" style="fill:#009af9; stroke:none; fill-opacity:0" cx="546.61" cy="1486.45" r="2"/>
<circle clip-path="url(#clip232)" style="fill:#009af9; stroke:none; fill-opacity:0" cx="560.375" cy="1486.45" r="2"/>
<circle clip-path="url(#clip232)" style="fill:#009af9; stroke:none; fill-opacity:0" cx="574.14" cy="1480.69" r="2"/>
<circle clip-path="url(#clip232)" style="fill:#009af9; stroke:none; fill-opacity:0" cx="587.905" cy="1486.45" r="2"/>
<circle clip-path="url(#clip232)" style="fill:#009af9; stroke:none; fill-opacity:0" cx="601.67" cy="1486.45" r="2"/>
<circle clip-path="url(#clip232)" style="fill:#009af9; stroke:none; fill-opacity:0" cx="615.435" cy="1486.45" r="2"/>
<circle clip-path="url(#clip232)" style="fill:#009af9; stroke:none; fill-opacity:0" cx="629.2" cy="1486.45" r="2"/>
<circle clip-path="url(#clip232)" style="fill:#009af9; stroke:none; fill-opacity:0" cx="642.965" cy="1486.45" r="2"/>
<circle clip-path="url(#clip232)" style="fill:#009af9; stroke:none; fill-opacity:0" cx="656.729" cy="1486.45" r="2"/>
<circle clip-path="url(#clip232)" style="fill:#009af9; stroke:none; fill-opacity:0" cx="670.494" cy="1486.45" r="2"/>
<circle clip-path="url(#clip232)" style="fill:#009af9; stroke:none; fill-opacity:0" cx="684.259" cy="1486.45" r="2"/>
<circle clip-path="url(#clip232)" style="fill:#009af9; stroke:none; fill-opacity:0" cx="698.024" cy="1486.45" r="2"/>
<circle clip-path="url(#clip232)" style="fill:#009af9; stroke:none; fill-opacity:0" cx="711.789" cy="1486.45" r="2"/>
<circle clip-path="url(#clip232)" style="fill:#009af9; stroke:none; fill-opacity:0" cx="725.554" cy="1486.45" r="2"/>
<circle clip-path="url(#clip232)" style="fill:#009af9; stroke:none; fill-opacity:0" cx="739.319" cy="1486.45" r="2"/>
<circle clip-path="url(#clip232)" style="fill:#009af9; stroke:none; fill-opacity:0" cx="753.084" cy="1486.45" r="2"/>
<circle clip-path="url(#clip232)" style="fill:#009af9; stroke:none; fill-opacity:0" cx="766.849" cy="1486.45" r="2"/>
<circle clip-path="url(#clip232)" style="fill:#009af9; stroke:none; fill-opacity:0" cx="780.614" cy="1184.22" r="2"/>
<circle clip-path="url(#clip232)" style="fill:#009af9; stroke:none; fill-opacity:0" cx="794.379" cy="1486.45" r="2"/>
<circle clip-path="url(#clip232)" style="fill:#009af9; stroke:none; fill-opacity:0" cx="808.143" cy="1486.45" r="2"/>
<circle clip-path="url(#clip232)" style="fill:#009af9; stroke:none; fill-opacity:0" cx="821.908" cy="1486.45" r="2"/>
<circle clip-path="url(#clip232)" style="fill:#009af9; stroke:none; fill-opacity:0" cx="835.673" cy="1486.45" r="2"/>
<circle clip-path="url(#clip232)" style="fill:#009af9; stroke:none; fill-opacity:0" cx="849.438" cy="1313.74" r="2"/>
<circle clip-path="url(#clip232)" style="fill:#009af9; stroke:none; fill-opacity:0" cx="863.203" cy="1486.45" r="2"/>
<circle clip-path="url(#clip232)" style="fill:#009af9; stroke:none; fill-opacity:0" cx="876.968" cy="1486.45" r="2"/>
<circle clip-path="url(#clip232)" style="fill:#009af9; stroke:none; fill-opacity:0" cx="890.733" cy="1486.45" r="2"/>
<circle clip-path="url(#clip232)" style="fill:#009af9; stroke:none; fill-opacity:0" cx="904.498" cy="1486.45" r="2"/>
<circle clip-path="url(#clip232)" style="fill:#009af9; stroke:none; fill-opacity:0" cx="918.263" cy="1486.45" r="2"/>
<circle clip-path="url(#clip232)" style="fill:#009af9; stroke:none; fill-opacity:0" cx="932.028" cy="1486.45" r="2"/>
<circle clip-path="url(#clip232)" style="fill:#009af9; stroke:none; fill-opacity:0" cx="945.793" cy="1486.45" r="2"/>
<circle clip-path="url(#clip232)" style="fill:#009af9; stroke:none; fill-opacity:0" cx="959.557" cy="1486.45" r="2"/>
<circle clip-path="url(#clip232)" style="fill:#009af9; stroke:none; fill-opacity:0" cx="973.322" cy="1486.45" r="2"/>
<circle clip-path="url(#clip232)" style="fill:#009af9; stroke:none; fill-opacity:0" cx="987.087" cy="1480.69" r="2"/>
<circle clip-path="url(#clip232)" style="fill:#009af9; stroke:none; fill-opacity:0" cx="1000.85" cy="1486.45" r="2"/>
<circle clip-path="url(#clip232)" style="fill:#009af9; stroke:none; fill-opacity:0" cx="1014.62" cy="1486.45" r="2"/>
<circle clip-path="url(#clip232)" style="fill:#009af9; stroke:none; fill-opacity:0" cx="1028.38" cy="1486.45" r="2"/>
<circle clip-path="url(#clip232)" style="fill:#009af9; stroke:none; fill-opacity:0" cx="1042.15" cy="1486.45" r="2"/>
<circle clip-path="url(#clip232)" style="fill:#009af9; stroke:none; fill-opacity:0" cx="1055.91" cy="1486.45" r="2"/>
<circle clip-path="url(#clip232)" style="fill:#009af9; stroke:none; fill-opacity:0" cx="1069.68" cy="1486.45" r="2"/>
<circle clip-path="url(#clip232)" style="fill:#009af9; stroke:none; fill-opacity:0" cx="1083.44" cy="1486.45" r="2"/>
<circle clip-path="url(#clip232)" style="fill:#009af9; stroke:none; fill-opacity:0" cx="1097.21" cy="1486.45" r="2"/>
<circle clip-path="url(#clip232)" style="fill:#009af9; stroke:none; fill-opacity:0" cx="1110.97" cy="1486.45" r="2"/>
<circle clip-path="url(#clip232)" style="fill:#009af9; stroke:none; fill-opacity:0" cx="1124.74" cy="1486.45" r="2"/>
<circle clip-path="url(#clip232)" style="fill:#009af9; stroke:none; fill-opacity:0" cx="1138.5" cy="1486.45" r="2"/>
<circle clip-path="url(#clip232)" style="fill:#009af9; stroke:none; fill-opacity:0" cx="1152.27" cy="1486.45" r="2"/>
<circle clip-path="url(#clip232)" style="fill:#009af9; stroke:none; fill-opacity:0" cx="1166.03" cy="1486.45" r="2"/>
<circle clip-path="url(#clip232)" style="fill:#009af9; stroke:none; fill-opacity:0" cx="1179.8" cy="1486.45" r="2"/>
<circle clip-path="url(#clip232)" style="fill:#009af9; stroke:none; fill-opacity:0" cx="1193.56" cy="1486.45" r="2"/>
<circle clip-path="url(#clip232)" style="fill:#009af9; stroke:none; fill-opacity:0" cx="1207.33" cy="1486.45" r="2"/>
<circle clip-path="url(#clip232)" style="fill:#009af9; stroke:none; fill-opacity:0" cx="1221.09" cy="1486.45" r="2"/>
<circle clip-path="url(#clip232)" style="fill:#009af9; stroke:none; fill-opacity:0" cx="1234.86" cy="1486.45" r="2"/>
<circle clip-path="url(#clip232)" style="fill:#009af9; stroke:none; fill-opacity:0" cx="1248.62" cy="1486.45" r="2"/>
<circle clip-path="url(#clip232)" style="fill:#009af9; stroke:none; fill-opacity:0" cx="1262.39" cy="1414.49" r="2"/>
<circle clip-path="url(#clip232)" style="fill:#009af9; stroke:none; fill-opacity:0" cx="1276.15" cy="1486.45" r="2"/>
<circle clip-path="url(#clip232)" style="fill:#009af9; stroke:none; fill-opacity:0" cx="1289.92" cy="1486.45" r="2"/>
<circle clip-path="url(#clip232)" style="fill:#009af9; stroke:none; fill-opacity:0" cx="1303.68" cy="1486.45" r="2"/>
<circle clip-path="url(#clip232)" style="fill:#009af9; stroke:none; fill-opacity:0" cx="1317.44" cy="1486.45" r="2"/>
<circle clip-path="url(#clip232)" style="fill:#009af9; stroke:none; fill-opacity:0" cx="1331.21" cy="1457.66" r="2"/>
<circle clip-path="url(#clip232)" style="fill:#009af9; stroke:none; fill-opacity:0" cx="1344.97" cy="1486.45" r="2"/>
<circle clip-path="url(#clip232)" style="fill:#009af9; stroke:none; fill-opacity:0" cx="1358.74" cy="1486.45" r="2"/>
<circle clip-path="url(#clip232)" style="fill:#009af9; stroke:none; fill-opacity:0" cx="1372.5" cy="1486.45" r="2"/>
<circle clip-path="url(#clip232)" style="fill:#009af9; stroke:none; fill-opacity:0" cx="1386.27" cy="1486.45" r="2"/>
<circle clip-path="url(#clip232)" style="fill:#009af9; stroke:none; fill-opacity:0" cx="1400.03" cy="1486.45" r="2"/>
<circle clip-path="url(#clip232)" style="fill:#009af9; stroke:none; fill-opacity:0" cx="1413.8" cy="1486.45" r="2"/>
<circle clip-path="url(#clip232)" style="fill:#009af9; stroke:none; fill-opacity:0" cx="1427.56" cy="1486.45" r="2"/>
<circle clip-path="url(#clip232)" style="fill:#009af9; stroke:none; fill-opacity:0" cx="1441.33" cy="1486.45" r="2"/>
<circle clip-path="url(#clip232)" style="fill:#009af9; stroke:none; fill-opacity:0" cx="1455.09" cy="1486.45" r="2"/>
<circle clip-path="url(#clip232)" style="fill:#009af9; stroke:none; fill-opacity:0" cx="1468.86" cy="1483.57" r="2"/>
<circle clip-path="url(#clip232)" style="fill:#009af9; stroke:none; fill-opacity:0" cx="1482.62" cy="1486.45" r="2"/>
<circle clip-path="url(#clip232)" style="fill:#009af9; stroke:none; fill-opacity:0" cx="1496.39" cy="1486.45" r="2"/>
<circle clip-path="url(#clip232)" style="fill:#009af9; stroke:none; fill-opacity:0" cx="1510.15" cy="1486.45" r="2"/>
<circle clip-path="url(#clip232)" style="fill:#009af9; stroke:none; fill-opacity:0" cx="1523.92" cy="1486.45" r="2"/>
<circle clip-path="url(#clip232)" style="fill:#009af9; stroke:none; fill-opacity:0" cx="1537.68" cy="1486.45" r="2"/>
<circle clip-path="url(#clip232)" style="fill:#009af9; stroke:none; fill-opacity:0" cx="1551.45" cy="1486.45" r="2"/>
<circle clip-path="url(#clip232)" style="fill:#009af9; stroke:none; fill-opacity:0" cx="1565.21" cy="1486.45" r="2"/>
<circle clip-path="url(#clip232)" style="fill:#009af9; stroke:none; fill-opacity:0" cx="1578.98" cy="1486.45" r="2"/>
<circle clip-path="url(#clip232)" style="fill:#009af9; stroke:none; fill-opacity:0" cx="1592.74" cy="1486.45" r="2"/>
<circle clip-path="url(#clip232)" style="fill:#009af9; stroke:none; fill-opacity:0" cx="1606.51" cy="1486.45" r="2"/>
<circle clip-path="url(#clip232)" style="fill:#009af9; stroke:none; fill-opacity:0" cx="1620.27" cy="1486.45" r="2"/>
<circle clip-path="url(#clip232)" style="fill:#009af9; stroke:none; fill-opacity:0" cx="1634.04" cy="1486.45" r="2"/>
<circle clip-path="url(#clip232)" style="fill:#009af9; stroke:none; fill-opacity:0" cx="1647.8" cy="1486.45" r="2"/>
<circle clip-path="url(#clip232)" style="fill:#009af9; stroke:none; fill-opacity:0" cx="1661.57" cy="1486.45" r="2"/>
<circle clip-path="url(#clip232)" style="fill:#009af9; stroke:none; fill-opacity:0" cx="1675.33" cy="1486.45" r="2"/>
<circle clip-path="url(#clip232)" style="fill:#009af9; stroke:none; fill-opacity:0" cx="1689.1" cy="1486.45" r="2"/>
<circle clip-path="url(#clip232)" style="fill:#009af9; stroke:none; fill-opacity:0" cx="1702.86" cy="1486.45" r="2"/>
<circle clip-path="url(#clip232)" style="fill:#009af9; stroke:none; fill-opacity:0" cx="1716.63" cy="1486.45" r="2"/>
<circle clip-path="url(#clip232)" style="fill:#009af9; stroke:none; fill-opacity:0" cx="1730.39" cy="1486.45" r="2"/>
<circle clip-path="url(#clip232)" style="fill:#009af9; stroke:none; fill-opacity:0" cx="1744.16" cy="1474.93" r="2"/>
<circle clip-path="url(#clip232)" style="fill:#009af9; stroke:none; fill-opacity:0" cx="1757.92" cy="1486.45" r="2"/>
<circle clip-path="url(#clip232)" style="fill:#009af9; stroke:none; fill-opacity:0" cx="1771.69" cy="1486.45" r="2"/>
<circle clip-path="url(#clip232)" style="fill:#009af9; stroke:none; fill-opacity:0" cx="1785.45" cy="1486.45" r="2"/>
<circle clip-path="url(#clip232)" style="fill:#009af9; stroke:none; fill-opacity:0" cx="1799.22" cy="1486.45" r="2"/>
<circle clip-path="url(#clip232)" style="fill:#009af9; stroke:none; fill-opacity:0" cx="1812.98" cy="1480.69" r="2"/>
<circle clip-path="url(#clip232)" style="fill:#009af9; stroke:none; fill-opacity:0" cx="1826.75" cy="1486.45" r="2"/>
<circle clip-path="url(#clip232)" style="fill:#009af9; stroke:none; fill-opacity:0" cx="1840.51" cy="1486.45" r="2"/>
<circle clip-path="url(#clip232)" style="fill:#009af9; stroke:none; fill-opacity:0" cx="1854.28" cy="1486.45" r="2"/>
<circle clip-path="url(#clip232)" style="fill:#009af9; stroke:none; fill-opacity:0" cx="1868.04" cy="1486.45" r="2"/>
<circle clip-path="url(#clip232)" style="fill:#009af9; stroke:none; fill-opacity:0" cx="1881.81" cy="1486.45" r="2"/>
<circle clip-path="url(#clip232)" style="fill:#009af9; stroke:none; fill-opacity:0" cx="1895.57" cy="1486.45" r="2"/>
<circle clip-path="url(#clip232)" style="fill:#009af9; stroke:none; fill-opacity:0" cx="1909.34" cy="1486.45" r="2"/>
<circle clip-path="url(#clip232)" style="fill:#009af9; stroke:none; fill-opacity:0" cx="1923.1" cy="1486.45" r="2"/>
<circle clip-path="url(#clip232)" style="fill:#009af9; stroke:none; fill-opacity:0" cx="1936.87" cy="1486.45" r="2"/>
<circle clip-path="url(#clip232)" style="fill:#009af9; stroke:none; fill-opacity:0" cx="1950.63" cy="1486.45" r="2"/>
<circle clip-path="url(#clip232)" style="fill:#009af9; stroke:none; fill-opacity:0" cx="1964.4" cy="1486.45" r="2"/>
<circle clip-path="url(#clip232)" style="fill:#009af9; stroke:none; fill-opacity:0" cx="1978.16" cy="1486.45" r="2"/>
<circle clip-path="url(#clip232)" style="fill:#009af9; stroke:none; fill-opacity:0" cx="1991.93" cy="1486.45" r="2"/>
<circle clip-path="url(#clip232)" style="fill:#009af9; stroke:none; fill-opacity:0" cx="2005.69" cy="1486.45" r="2"/>
<circle clip-path="url(#clip232)" style="fill:#009af9; stroke:none; fill-opacity:0" cx="2019.46" cy="1486.45" r="2"/>
<circle clip-path="url(#clip232)" style="fill:#009af9; stroke:none; fill-opacity:0" cx="2033.22" cy="1486.45" r="2"/>
<circle clip-path="url(#clip232)" style="fill:#009af9; stroke:none; fill-opacity:0" cx="2046.99" cy="1486.45" r="2"/>
<circle clip-path="url(#clip232)" style="fill:#009af9; stroke:none; fill-opacity:0" cx="2060.75" cy="1486.45" r="2"/>
<circle clip-path="url(#clip232)" style="fill:#009af9; stroke:none; fill-opacity:0" cx="2074.51" cy="1486.45" r="2"/>
<circle clip-path="url(#clip232)" style="fill:#009af9; stroke:none; fill-opacity:0" cx="2088.28" cy="1486.45" r="2"/>
<circle clip-path="url(#clip232)" style="fill:#009af9; stroke:none; fill-opacity:0" cx="2102.04" cy="1486.45" r="2"/>
<circle clip-path="url(#clip232)" style="fill:#009af9; stroke:none; fill-opacity:0" cx="2115.81" cy="1486.45" r="2"/>
<circle clip-path="url(#clip232)" style="fill:#009af9; stroke:none; fill-opacity:0" cx="2129.57" cy="1486.45" r="2"/>
<circle clip-path="url(#clip232)" style="fill:#009af9; stroke:none; fill-opacity:0" cx="2143.34" cy="1486.45" r="2"/>
<circle clip-path="url(#clip232)" style="fill:#009af9; stroke:none; fill-opacity:0" cx="2157.1" cy="1486.45" r="2"/>
<circle clip-path="url(#clip232)" style="fill:#009af9; stroke:none; fill-opacity:0" cx="2170.87" cy="1486.45" r="2"/>
<circle clip-path="url(#clip232)" style="fill:#009af9; stroke:none; fill-opacity:0" cx="2184.63" cy="1486.45" r="2"/>
<circle clip-path="url(#clip232)" style="fill:#009af9; stroke:none; fill-opacity:0" cx="2198.4" cy="1486.45" r="2"/>
<circle clip-path="url(#clip232)" style="fill:#009af9; stroke:none; fill-opacity:0" cx="2212.16" cy="1486.45" r="2"/>
<circle clip-path="url(#clip232)" style="fill:#009af9; stroke:none; fill-opacity:0" cx="2225.93" cy="1483.57" r="2"/>
</svg>
